<?xml version="1.0" encoding="UTF-8"?>
<!DOCTYPE svg PUBLIC "-//W3C//DTD SVG 1.1//EN" "http://www.w3.org/Graphics/SVG/1.1/DTD/svg11.dtd">
<svg xmlns="http://www.w3.org/2000/svg" xmlns:xlink="http://www.w3.org/1999/xlink" version="1.1" width="617px" height="365px" viewBox="-0.5 -0.5 617 365"><defs><clipPath id="mx-clip-4-31-262-94-0"><rect x="4" y="31" width="262" height="94"/></clipPath><clipPath id="mx-clip-317-101-262-64-0"><rect x="317" y="101" width="262" height="64"/></clipPath><clipPath id="mx-clip-21-167-212-44-0"><rect x="21" y="167" width="212" height="44"/></clipPath><clipPath id="mx-clip-375-229-112-54-0"><rect x="375" y="229" width="112" height="54"/></clipPath><clipPath id="mx-clip-67-282-246-84-0"><rect x="67" y="282" width="246" height="84"/></clipPath></defs><g><g><path d="M 0 26 L 0 0 L 270 0 L 270 26" fill="rgb(255, 255, 255)" stroke="rgb(0, 0, 0)" stroke-miterlimit="10" pointer-events="all"/><path d="M 0 26 L 0 120 L 270 120 L 270 26" fill="none" stroke="rgb(0, 0, 0)" stroke-miterlimit="10" pointer-events="none"/><path d="M 0 26 L 270 26" fill="none" stroke="rgb(0, 0, 0)" stroke-miterlimit="10" pointer-events="none"/></g><g><g fill="rgb(0, 0, 0)" font-family="Helvetica" font-weight="bold" text-anchor="middle" font-size="14px"><text x="134.5" y="19.5">AddGroupMemberDeviceMsg</text></g></g><g><rect x="0" y="26" width="270" height="94" fill="#ffffff" stroke="none" pointer-events="all"/></g><g><g fill="rgb(0, 0, 0)" font-family="Helvetica" clip-path="url(#mx-clip-4-31-262-94-0)" font-size="12px"><text x="5.5" y="43.5">uint32 e2ee_pack_id = 1;</text><text x="5.5" y="57.5">E2eeAddress sender_address = 2;</text><text x="5.5" y="71.5">uint32 sequence = 3;</text><text x="5.5" y="85.5">GroupInfo group_info = 4;</text><text x="5.5" y="99.5">GroupMemberInfo adding_member_device = 5;</text></g></g><g><path d="M 313 96 L 313 70 L 583 70 L 583 96" fill="rgb(255, 255, 255)" stroke="rgb(0, 0, 0)" stroke-miterlimit="10" pointer-events="all"/><path d="M 313 96 L 313 160 L 583 160 L 583 96" fill="none" stroke="rgb(0, 0, 0)" stroke-miterlimit="10" pointer-events="none"/><path d="M 313 96 L 583 96" fill="none" stroke="rgb(0, 0, 0)" stroke-miterlimit="10" pointer-events="none"/></g><g><g fill="rgb(0, 0, 0)" font-family="Helvetica" font-weight="bold" text-anchor="middle" font-size="14px"><text x="447.5" y="89.5">GroupInfo</text></g></g><g><rect x="313" y="96" width="270" height="64" fill="#ffffff" stroke="none" pointer-events="all"/></g><g><g fill="rgb(0, 0, 0)" font-family="Helvetica" clip-path="url(#mx-clip-317-101-262-64-0)" font-size="12px"><text x="318.5" y="113.5">string group_name = 1;</text><text x="318.5" y="127.5">E2eeAddress group_address = 2;</text><text x="318.5" y="141.5">repeated GroupMember group_member_list = 3;</text></g></g><g><path d="M 193.05 79.96 L 304.47 80.92" fill="none" stroke="rgb(0, 0, 0)" stroke-miterlimit="10" pointer-events="stroke"/><path d="M 309.72 80.97 L 302.69 84.41 L 304.47 80.92 L 302.75 77.41 Z" fill="rgb(0, 0, 0)" stroke="rgb(0, 0, 0)" stroke-miterlimit="10" pointer-events="all"/></g><g><path d="M 17 162 L 17 136 L 237 136 L 237 162" fill="rgb(255, 255, 255)" stroke="rgb(0, 0, 0)" stroke-miterlimit="10" pointer-events="all"/><path d="M 17 162 L 17 206 L 237 206 L 237 162" fill="none" stroke="rgb(0, 0, 0)" stroke-miterlimit="10" pointer-events="none"/><path d="M 17 162 L 237 162" fill="none" stroke="rgb(0, 0, 0)" stroke-miterlimit="10" pointer-events="none"/></g><g><g fill="rgb(0, 0, 0)" font-family="Helvetica" font-weight="bold" text-anchor="middle" font-size="14px"><text x="126.5" y="155.5">GroupMemberInfo</text></g></g><g><rect x="17" y="162" width="220" height="44" fill="#ffffff" stroke="none" pointer-events="all"/></g><g><g fill="rgb(0, 0, 0)" font-family="Helvetica" clip-path="url(#mx-clip-21-167-212-44-0)" font-size="12px"><text x="22.5" y="179.5">E2eeAddress member_address = 1;</text><text x="22.5" y="193.5">bytes sign_public_key = 2;</text></g></g><g><path d="M 263 96 L 263 97 L 291 97 L 291 152 L 243.37 152" fill="none" stroke="rgb(0, 0, 0)" stroke-miterlimit="10" pointer-events="stroke"/><path d="M 238.12 152 L 245.12 148.5 L 243.37 152 L 245.12 155.5 Z" fill="rgb(0, 0, 0)" stroke="rgb(0, 0, 0)" stroke-miterlimit="10" pointer-events="all"/></g><g><path d="M 371 224 L 371 198 L 491 198 L 491 224" fill="rgb(255, 255, 255)" stroke="rgb(0, 0, 0)" stroke-miterlimit="10" pointer-events="all"/><path d="M 371 224 L 371 278 L 491 278 L 491 224" fill="none" stroke="rgb(0, 0, 0)" stroke-miterlimit="10" pointer-events="none"/><path d="M 371 224 L 491 224" fill="none" stroke="rgb(0, 0, 0)" stroke-miterlimit="10" pointer-events="none"/></g><g><g fill="rgb(0, 0, 0)" font-family="Helvetica" font-weight="bold" text-anchor="middle" font-size="14px"><text x="430.5" y="217.5">GroupMember</text></g></g><g><rect x="371" y="224" width="120" height="54" fill="#ffffff" stroke="none" pointer-events="all"/></g><g><g fill="rgb(0, 0, 0)" font-family="Helvetica" clip-path="url(#mx-clip-375-229-112-54-0)" font-size="12px"><text x="376.5" y="241.5">string user_id = 1;</text><text x="376.5" y="255.5">string domain = 2;</text><text x="376.5" y="269.5">GroupRole role = 3;</text></g></g><g><path d="M 583 137.5 L 608 137.5 L 608 208.42 L 495.81 208.4" fill="none" stroke="rgb(0, 0, 0)" stroke-miterlimit="10" pointer-events="stroke"/><path d="M 490.56 208.4 L 497.56 204.9 L 495.81 208.4 L 497.56 211.9 Z" fill="rgb(0, 0, 0)" stroke="rgb(0, 0, 0)" stroke-miterlimit="10" pointer-events="all"/></g><g><path d="M 62.68 277 L 62.68 251 L 316.68 251 L 316.68 277" fill="rgb(255, 255, 255)" stroke="rgb(0, 0, 0)" stroke-miterlimit="10" pointer-events="all"/><path d="M 62.68 277 L 62.68 361 L 316.68 361 L 316.68 277" fill="none" stroke="rgb(0, 0, 0)" stroke-miterlimit="10" pointer-events="none"/><path d="M 62.68 277 L 316.68 277" fill="none" stroke="rgb(0, 0, 0)" stroke-miterlimit="10" pointer-events="none"/></g><g><g fill="rgb(0, 0, 0)" font-family="Helvetica" font-weight="bold" text-anchor="middle" font-size="14px"><text x="189.18" y="270.5">GroupRole</text></g></g><g><rect x="62.68" y="277" width="254" height="84" fill="#ffffff" stroke="none" pointer-events="all"/></g><g><g fill="rgb(0, 0, 0)" font-family="Helvetica" clip-path="url(#mx-clip-67-282-246-84-0)" font-size="12px"><text x="68.18" y="294.5">GROUP_ROLE_MEMBER = 0;</text><text x="68.18" y="308.5">GROUP_ROLE_MANAGER = 1;</text><text x="68.18" y="336.5">GROUP_ROLE_PENDING_MEMBER = 10;</text><text x="68.18" y="350.5">GROUP_ROLE_PENDING_MANAGER = 11;</text></g></g><g><path d="M 375 266.01 L 322.29 266.26" fill="none" stroke="rgb(0, 0, 0)" stroke-miterlimit="10" pointer-events="stroke"/><path d="M 317.04 266.28 L 324.02 262.75 L 322.29 266.26 L 324.05 269.75 Z" fill="rgb(0, 0, 0)" stroke="rgb(0, 0, 0)" stroke-miterlimit="10" pointer-events="all"/></g></g></svg>