<?xml version="1.0" encoding="UTF-8"?>
<!DOCTYPE svg PUBLIC "-//W3C//DTD SVG 1.1//EN" "http://www.w3.org/Graphics/SVG/1.1/DTD/svg11.dtd">
<svg xmlns="http://www.w3.org/2000/svg" xmlns:xlink="http://www.w3.org/1999/xlink" version="1.1" width="681px" height="366px" viewBox="-0.5 -0.5 681 366"><defs><clipPath id="mx-clip-4-31-322-94-0"><rect x="4" y="31" width="322" height="94"/></clipPath><clipPath id="mx-clip-384-101-262-64-0"><rect x="384" y="101" width="262" height="64"/></clipPath><clipPath id="mx-clip-80-181-212-44-0"><rect x="80" y="181" width="212" height="44"/></clipPath><clipPath id="mx-clip-135-283-246-84-0"><rect x="135" y="283" width="246" height="84"/></clipPath><clipPath id="mx-clip-443-230-112-54-0"><rect x="443" y="230" width="112" height="54"/></clipPath></defs><g><g><path d="M 0 26 L 0 0 L 330 0 L 330 26" fill="rgb(255, 255, 255)" stroke="rgb(0, 0, 0)" stroke-miterlimit="10" pointer-events="all"/><path d="M 0 26 L 0 120 L 330 120 L 330 26" fill="none" stroke="rgb(0, 0, 0)" stroke-miterlimit="10" pointer-events="none"/><path d="M 0 26 L 330 26" fill="none" stroke="rgb(0, 0, 0)" stroke-miterlimit="10" pointer-events="none"/></g><g><g fill="rgb(0, 0, 0)" font-family="Helvetica" font-weight="bold" text-anchor="middle" font-size="14px"><text x="164.5" y="19.5">AddGroupMembersMsg</text></g></g><g><rect x="0" y="26" width="330" height="94" fill="#ffffff" stroke="none" pointer-events="all"/></g><g><g fill="rgb(0, 0, 0)" font-family="Helvetica" clip-path="url(#mx-clip-4-31-322-94-0)" font-size="12px"><text x="5.5" y="43.5">uint32 e2ee_pack_id = 1;</text><text x="5.5" y="57.5">E2eeAddress sender_address = 2;</text><text x="5.5" y="71.5">uint32 sequence = 3;</text><text x="5.5" y="85.5">GroupInfo group_info = 4;</text><text x="5.5" y="99.5">repeated GroupMember adding_member_list = 5;</text><text x="5.5" y="113.5">repeated GroupMemberInfo adding_member_info_list = 6;</text></g></g><g><path d="M 380 96 L 380 70 L 650 70 L 650 96" fill="rgb(255, 255, 255)" stroke="rgb(0, 0, 0)" stroke-miterlimit="10" pointer-events="all"/><path d="M 380 96 L 380 160 L 650 160 L 650 96" fill="none" stroke="rgb(0, 0, 0)" stroke-miterlimit="10" pointer-events="none"/><path d="M 380 96 L 650 96" fill="none" stroke="rgb(0, 0, 0)" stroke-miterlimit="10" pointer-events="none"/></g><g><g fill="rgb(0, 0, 0)" font-family="Helvetica" font-weight="bold" text-anchor="middle" font-size="14px"><text x="514.5" y="89.5">GroupInfo</text></g></g><g><rect x="380" y="96" width="270" height="64" fill="#ffffff" stroke="none" pointer-events="all"/></g><g><g fill="rgb(0, 0, 0)" font-family="Helvetica" clip-path="url(#mx-clip-384-101-262-64-0)" font-size="12px"><text x="385.5" y="113.5">string group_name = 1;</text><text x="385.5" y="127.5">E2eeAddress group_address = 2;</text><text x="385.5" y="141.5">repeated GroupMember group_member_list = 3;</text></g></g><g><path d="M 160 80 L 371.47 80.95" fill="none" stroke="rgb(0, 0, 0)" stroke-miterlimit="10" pointer-events="stroke"/><path d="M 376.72 80.97 L 369.71 84.44 L 371.47 80.95 L 369.74 77.44 Z" fill="rgb(0, 0, 0)" stroke="rgb(0, 0, 0)" stroke-miterlimit="10" pointer-events="all"/></g><g><path d="M 76 176 L 76 150 L 296 150 L 296 176" fill="rgb(255, 255, 255)" stroke="rgb(0, 0, 0)" stroke-miterlimit="10" pointer-events="all"/><path d="M 76 176 L 76 220 L 296 220 L 296 176" fill="none" stroke="rgb(0, 0, 0)" stroke-miterlimit="10" pointer-events="none"/><path d="M 76 176 L 296 176" fill="none" stroke="rgb(0, 0, 0)" stroke-miterlimit="10" pointer-events="none"/></g><g><g fill="rgb(0, 0, 0)" font-family="Helvetica" font-weight="bold" text-anchor="middle" font-size="14px"><text x="185.5" y="169.5">GroupMemberInfo</text></g></g><g><rect x="76" y="176" width="220" height="44" fill="#ffffff" stroke="none" pointer-events="all"/></g><g><g fill="rgb(0, 0, 0)" font-family="Helvetica" clip-path="url(#mx-clip-80-181-212-44-0)" font-size="12px"><text x="81.5" y="193.5">E2eeAddress member_address = 1;</text><text x="81.5" y="207.5">bytes sign_public_key = 2;</text></g></g><g><path d="M 322 110 L 322 111 L 350 111 L 350 166 L 302.37 166" fill="none" stroke="rgb(0, 0, 0)" stroke-miterlimit="10" pointer-events="stroke"/><path d="M 297.12 166 L 304.12 162.5 L 302.37 166 L 304.12 169.5 Z" fill="rgb(0, 0, 0)" stroke="rgb(0, 0, 0)" stroke-miterlimit="10" pointer-events="all"/></g><g><path d="M 131 278 L 131 252 L 385 252 L 385 278" fill="rgb(255, 255, 255)" stroke="rgb(0, 0, 0)" stroke-miterlimit="10" pointer-events="all"/><path d="M 131 278 L 131 362 L 385 362 L 385 278" fill="none" stroke="rgb(0, 0, 0)" stroke-miterlimit="10" pointer-events="none"/><path d="M 131 278 L 385 278" fill="none" stroke="rgb(0, 0, 0)" stroke-miterlimit="10" pointer-events="none"/></g><g><g fill="rgb(0, 0, 0)" font-family="Helvetica" font-weight="bold" text-anchor="middle" font-size="14px"><text x="257.5" y="271.5">GroupRole</text></g></g><g><rect x="131" y="278" width="254" height="84" fill="#ffffff" stroke="none" pointer-events="all"/></g><g><g fill="rgb(0, 0, 0)" font-family="Helvetica" clip-path="url(#mx-clip-135-283-246-84-0)" font-size="12px"><text x="136.5" y="295.5">GROUP_ROLE_MEMBER = 0;</text><text x="136.5" y="309.5">GROUP_ROLE_MANAGER = 1;</text><text x="136.5" y="337.5">GROUP_ROLE_PENDING_MEMBER = 10;</text><text x="136.5" y="351.5">GROUP_ROLE_PENDING_MANAGER = 11;</text></g></g><g><path d="M 439 225 L 439 199 L 559 199 L 559 225" fill="rgb(255, 255, 255)" stroke="rgb(0, 0, 0)" stroke-miterlimit="10" pointer-events="all"/><path d="M 439 225 L 439 279 L 559 279 L 559 225" fill="none" stroke="rgb(0, 0, 0)" stroke-miterlimit="10" pointer-events="none"/><path d="M 439 225 L 559 225" fill="none" stroke="rgb(0, 0, 0)" stroke-miterlimit="10" pointer-events="none"/></g><g><g fill="rgb(0, 0, 0)" font-family="Helvetica" font-weight="bold" text-anchor="middle" font-size="14px"><text x="498.5" y="218.5">GroupMember</text></g></g><g><rect x="439" y="225" width="120" height="54" fill="#ffffff" stroke="none" pointer-events="all"/></g><g><g fill="rgb(0, 0, 0)" font-family="Helvetica" clip-path="url(#mx-clip-443-230-112-54-0)" font-size="12px"><text x="444.5" y="242.5">string user_id = 1;</text><text x="444.5" y="256.5">string domain = 2;</text><text x="444.5" y="270.5">GroupRole role = 3;</text></g></g><g><path d="M 443.32 267.01 L 390.61 267.26" fill="none" stroke="rgb(0, 0, 0)" stroke-miterlimit="10" pointer-events="stroke"/><path d="M 385.36 267.28 L 392.34 263.75 L 390.61 267.26 L 392.37 270.75 Z" fill="rgb(0, 0, 0)" stroke="rgb(0, 0, 0)" stroke-miterlimit="10" pointer-events="all"/></g><g><path d="M 650 137.5 L 650 139 L 672 139 L 672 209.42 L 563.81 209.4" fill="none" stroke="rgb(0, 0, 0)" stroke-miterlimit="10" pointer-events="stroke"/><path d="M 558.56 209.4 L 565.56 205.9 L 563.81 209.4 L 565.56 212.9 Z" fill="rgb(0, 0, 0)" stroke="rgb(0, 0, 0)" stroke-miterlimit="10" pointer-events="all"/></g></g></svg>