<?xml version="1.0" encoding="UTF-8"?>
<!DOCTYPE svg PUBLIC "-//W3C//DTD SVG 1.1//EN" "http://www.w3.org/Graphics/SVG/1.1/DTD/svg11.dtd">
<svg xmlns="http://www.w3.org/2000/svg" xmlns:xlink="http://www.w3.org/1999/xlink" version="1.1" width="682px" height="354px" viewBox="-0.5 -0.5 682 354"><defs><clipPath id="mx-clip-4-31-282-74-0"><rect x="4" y="31" width="282" height="74"/></clipPath><clipPath id="mx-clip-135-271-246-84-0"><rect x="135" y="271" width="246" height="84"/></clipPath><clipPath id="mx-clip-384-91-262-64-0"><rect x="384" y="91" width="262" height="64"/></clipPath><clipPath id="mx-clip-39-151-212-44-0"><rect x="39" y="151" width="212" height="44"/></clipPath><clipPath id="mx-clip-444-218-112-54-0"><rect x="444" y="218" width="112" height="54"/></clipPath></defs><g><g><path d="M 0 26 L 0 0 L 290 0 L 290 26" fill="rgb(255, 255, 255)" stroke="rgb(0, 0, 0)" stroke-miterlimit="10" pointer-events="all"/><path d="M 0 26 L 0 100 L 290 100 L 290 26" fill="none" stroke="rgb(0, 0, 0)" stroke-miterlimit="10" pointer-events="none"/><path d="M 0 26 L 290 26" fill="none" stroke="rgb(0, 0, 0)" stroke-miterlimit="10" pointer-events="none"/></g><g><g fill="rgb(0, 0, 0)" font-family="Helvetica" font-weight="bold" text-anchor="middle" font-size="14px"><text x="144.5" y="19.5">CreateGroupMsg</text></g></g><g><rect x="0" y="26" width="290" height="74" fill="#ffffff" stroke="none" pointer-events="all"/></g><g><g fill="rgb(0, 0, 0)" font-family="Helvetica" clip-path="url(#mx-clip-4-31-282-74-0)" font-size="12px"><text x="5.5" y="43.5">uint32 e2ee_pack_id = 1;</text><text x="5.5" y="57.5">E2eeAddress sender_address = 2;</text><text x="5.5" y="71.5">GroupInfo group_info = 3;</text><text x="5.5" y="85.5">repeated GroupMemberInfo member_info_list = 4;</text></g></g><g><path d="M 131 266 L 131 240 L 385 240 L 385 266" fill="rgb(255, 255, 255)" stroke="rgb(0, 0, 0)" stroke-miterlimit="10" pointer-events="all"/><path d="M 131 266 L 131 350 L 385 350 L 385 266" fill="none" stroke="rgb(0, 0, 0)" stroke-miterlimit="10" pointer-events="none"/><path d="M 131 266 L 385 266" fill="none" stroke="rgb(0, 0, 0)" stroke-miterlimit="10" pointer-events="none"/></g><g><g fill="rgb(0, 0, 0)" font-family="Helvetica" font-weight="bold" text-anchor="middle" font-size="14px"><text x="257.5" y="259.5">GroupRole</text></g></g><g><rect x="131" y="266" width="254" height="84" fill="#ffffff" stroke="none" pointer-events="all"/></g><g><g fill="rgb(0, 0, 0)" font-family="Helvetica" clip-path="url(#mx-clip-135-271-246-84-0)" font-size="12px"><text x="136.5" y="283.5">GROUP_ROLE_MEMBER = 0;</text><text x="136.5" y="297.5">GROUP_ROLE_MANAGER = 1;</text><text x="136.5" y="325.5">GROUP_ROLE_PENDING_MEMBER = 10;</text><text x="136.5" y="339.5">GROUP_ROLE_PENDING_MANAGER = 11;</text></g></g><g><path d="M 380 86 L 380 60 L 650 60 L 650 86" fill="rgb(255, 255, 255)" stroke="rgb(0, 0, 0)" stroke-miterlimit="10" pointer-events="all"/><path d="M 380 86 L 380 150 L 650 150 L 650 86" fill="none" stroke="rgb(0, 0, 0)" stroke-miterlimit="10" pointer-events="none"/><path d="M 380 86 L 650 86" fill="none" stroke="rgb(0, 0, 0)" stroke-miterlimit="10" pointer-events="none"/></g><g><g fill="rgb(0, 0, 0)" font-family="Helvetica" font-weight="bold" text-anchor="middle" font-size="14px"><text x="514.5" y="79.5">GroupInfo</text></g></g><g><path d="M 281 82 L 281 83 L 360 83 L 360 137.5 L 261.37 137.5" fill="none" stroke="rgb(0, 0, 0)" stroke-miterlimit="10" pointer-events="stroke"/><path d="M 256.12 137.5 L 263.12 134 L 261.37 137.5 L 263.12 141 Z" fill="rgb(0, 0, 0)" stroke="rgb(0, 0, 0)" stroke-miterlimit="10" pointer-events="all"/></g><g><rect x="380" y="86" width="270" height="64" fill="#ffffff" stroke="none" pointer-events="all"/></g><g><g fill="rgb(0, 0, 0)" font-family="Helvetica" clip-path="url(#mx-clip-384-91-262-64-0)" font-size="12px"><text x="385.5" y="103.5">string group_name = 1;</text><text x="385.5" y="117.5">E2eeAddress group_address = 2;</text><text x="385.5" y="131.5">repeated GroupMember group_member_list = 3;</text></g></g><g><path d="M 160.08 70.03 L 371.47 70.95" fill="none" stroke="rgb(0, 0, 0)" stroke-miterlimit="10" pointer-events="stroke"/><path d="M 376.72 70.98 L 369.71 74.44 L 371.47 70.95 L 369.74 67.44 Z" fill="rgb(0, 0, 0)" stroke="rgb(0, 0, 0)" stroke-miterlimit="10" pointer-events="all"/></g><g><path d="M 35 146 L 35 120 L 255 120 L 255 146" fill="rgb(255, 255, 255)" stroke="rgb(0, 0, 0)" stroke-miterlimit="10" pointer-events="all"/><path d="M 35 146 L 35 190 L 255 190 L 255 146" fill="none" stroke="rgb(0, 0, 0)" stroke-miterlimit="10" pointer-events="none"/><path d="M 35 146 L 255 146" fill="none" stroke="rgb(0, 0, 0)" stroke-miterlimit="10" pointer-events="none"/></g><g><g fill="rgb(0, 0, 0)" font-family="Helvetica" font-weight="bold" text-anchor="middle" font-size="14px"><text x="144.5" y="139.5">GroupMemberInfo</text></g></g><g><rect x="35" y="146" width="220" height="44" fill="#ffffff" stroke="none" pointer-events="all"/></g><g><g fill="rgb(0, 0, 0)" font-family="Helvetica" clip-path="url(#mx-clip-39-151-212-44-0)" font-size="12px"><text x="40.5" y="163.5">E2eeAddress member_address = 1;</text><text x="40.5" y="177.5">bytes sign_public_key = 2;</text></g></g><g><path d="M 440 213 L 440 187 L 560 187 L 560 213" fill="rgb(255, 255, 255)" stroke="rgb(0, 0, 0)" stroke-miterlimit="10" pointer-events="all"/><path d="M 440 213 L 440 267 L 560 267 L 560 213" fill="none" stroke="rgb(0, 0, 0)" stroke-miterlimit="10" pointer-events="none"/><path d="M 440 213 L 560 213" fill="none" stroke="rgb(0, 0, 0)" stroke-miterlimit="10" pointer-events="none"/></g><g><g fill="rgb(0, 0, 0)" font-family="Helvetica" font-weight="bold" text-anchor="middle" font-size="14px"><text x="499.5" y="206.5">GroupMember</text></g></g><g><rect x="440" y="213" width="120" height="54" fill="#ffffff" stroke="none" pointer-events="all"/></g><g><g fill="rgb(0, 0, 0)" font-family="Helvetica" clip-path="url(#mx-clip-444-218-112-54-0)" font-size="12px"><text x="445.5" y="230.5">string user_id = 1;</text><text x="445.5" y="244.5">string domain = 2;</text><text x="445.5" y="258.5">GroupRole role = 3;</text></g></g><g><path d="M 443.32 255.01 L 390.61 255.26" fill="none" stroke="rgb(0, 0, 0)" stroke-miterlimit="10" pointer-events="stroke"/><path d="M 385.36 255.28 L 392.34 251.75 L 390.61 255.26 L 392.37 258.75 Z" fill="rgb(0, 0, 0)" stroke="rgb(0, 0, 0)" stroke-miterlimit="10" pointer-events="all"/></g><g><path d="M 650 127.5 L 673 127.5 L 673 197.42 L 564.81 197.4" fill="none" stroke="rgb(0, 0, 0)" stroke-miterlimit="10" pointer-events="stroke"/><path d="M 559.56 197.4 L 566.56 193.9 L 564.81 197.4 L 566.56 200.9 Z" fill="rgb(0, 0, 0)" stroke="rgb(0, 0, 0)" stroke-miterlimit="10" pointer-events="all"/></g></g></svg>