<?xml version="1.0" encoding="UTF-8"?>
<!DOCTYPE svg PUBLIC "-//W3C//DTD SVG 1.1//EN" "http://www.w3.org/Graphics/SVG/1.1/DTD/svg11.dtd">
<svg xmlns="http://www.w3.org/2000/svg" xmlns:xlink="http://www.w3.org/1999/xlink" version="1.1" width="717px" height="244px" viewBox="-0.5 -0.5 717 244"><defs><clipPath id="mx-clip-259-31-192-104-0"><rect x="259" y="31" width="192" height="104"/></clipPath><clipPath id="mx-clip-519-131-192-114-0"><rect x="519" y="131" width="192" height="114"/></clipPath><clipPath id="mx-clip-4-111-192-124-0"><rect x="4" y="111" width="192" height="124"/></clipPath></defs><g><g><path d="M 255.25 26 L 255.25 0 L 455.25 0 L 455.25 26" fill="rgb(255, 255, 255)" stroke="rgb(0, 0, 0)" stroke-miterlimit="10" pointer-events="all"/><path d="M 255.25 26 L 255.25 130 L 455.25 130 L 455.25 26" fill="none" stroke="rgb(0, 0, 0)" stroke-miterlimit="10" pointer-events="none"/><path d="M 255.25 26 L 455.25 26" fill="none" stroke="rgb(0, 0, 0)" stroke-miterlimit="10" pointer-events="none"/></g><g><g fill="rgb(0, 0, 0)" font-family="Helvetica" font-weight="bold" text-anchor="middle" font-size="14px"><text x="354.75" y="19.5">FriendManagerMsg</text></g></g><g><rect x="255.25" y="26" width="200" height="104" fill="#ffffff" stroke="none" pointer-events="all"/></g><g><g fill="rgb(0, 0, 0)" font-family="Helvetica" clip-path="url(#mx-clip-259-31-192-104-0)" font-size="12px"><text x="260.75" y="43.5">int64 modified_date = 1;</text><text x="260.75" y="57.5">string msgId = 2;</text><text x="260.75" y="71.5">E2eeAddress user_address = 3;</text><text x="260.75" y="85.5">string user_name = 4;</text><text x="260.75" y="99.5">FriendOp op = 5;</text><text x="260.75" y="113.5">FriendshipDTO friend = 6;</text></g></g><g><path d="M 515.25 126 L 515.25 100 L 715.25 100 L 715.25 126" fill="rgb(255, 255, 255)" stroke="rgb(0, 0, 0)" stroke-miterlimit="10" pointer-events="all"/><path d="M 515.25 126 L 515.25 240 L 715.25 240 L 715.25 126" fill="none" stroke="rgb(0, 0, 0)" stroke-miterlimit="10" pointer-events="none"/><path d="M 515.25 126 L 715.25 126" fill="none" stroke="rgb(0, 0, 0)" stroke-miterlimit="10" pointer-events="none"/></g><g><g fill="rgb(0, 0, 0)" font-family="Helvetica" font-weight="bold" text-anchor="middle" font-size="14px"><text x="614.75" y="119.5">FriendshipDTO</text></g></g><g><rect x="515.25" y="126" width="200" height="114" fill="#ffffff" stroke="none" pointer-events="all"/></g><g><g fill="rgb(0, 0, 0)" font-family="Helvetica" clip-path="url(#mx-clip-519-131-192-114-0)" font-size="12px"><text x="520.75" y="143.5">int64 modified_date = 1;</text><text x="520.75" y="157.5">string from_user = 2;</text><text x="520.75" y="171.5">string to_user = 3;</text><text x="520.75" y="185.5">string nickname = 4;</text><text x="520.75" y="199.5">string memoname = 5;</text><text x="520.75" y="213.5">int32 block_state = 6;</text><text x="520.75" y="227.5">int32 friend_status = 7;</text></g></g><g><path d="M 0 106 L 0 80 L 200 80 L 200 106" fill="rgb(255, 255, 255)" stroke="rgb(0, 0, 0)" stroke-miterlimit="10" pointer-events="all"/><path d="M 0 106 L 0 230 L 200 230 L 200 106" fill="none" stroke="rgb(0, 0, 0)" stroke-miterlimit="10" pointer-events="none"/><path d="M 0 106 L 200 106" fill="none" stroke="rgb(0, 0, 0)" stroke-miterlimit="10" pointer-events="none"/></g><g><g fill="rgb(0, 0, 0)" font-family="Helvetica" font-weight="bold" text-anchor="middle" font-size="14px"><text x="99.5" y="99.5">FriendOp</text></g></g><g><rect x="0" y="106" width="200" height="124" fill="#ffffff" stroke="none" pointer-events="all"/></g><g><g fill="rgb(0, 0, 0)" font-family="Helvetica" clip-path="url(#mx-clip-4-111-192-124-0)" font-size="12px"><text x="5.5" y="123.5">ADDING_SEND = 0;</text><text x="5.5" y="137.5">ADDING_RECEIVE = 1;</text><text x="5.5" y="151.5">ADDED = 2;</text><text x="5.5" y="165.5">BLOCKED = 3;</text><text x="5.5" y="179.5">UNBLOCKED = 4;</text><text x="5.5" y="193.5">REMOVED = 5;</text><text x="5.5" y="207.5">UPDATE_MEMONAME = 6;</text><text x="5.5" y="221.5">RECOMMEND = 7;</text></g></g><g><path d="M 410.05 110.03 L 508.68 109.95" fill="none" stroke="rgb(0, 0, 0)" stroke-miterlimit="10" pointer-events="stroke"/><path d="M 513.93 109.94 L 506.94 113.45 L 508.68 109.95 L 506.93 106.45 Z" fill="rgb(0, 0, 0)" stroke="rgb(0, 0, 0)" stroke-miterlimit="10" pointer-events="all"/></g><g><path d="M 259.05 95.05 L 207.37 94.69" fill="none" stroke="rgb(0, 0, 0)" stroke-miterlimit="10" pointer-events="stroke"/><path d="M 202.12 94.66 L 209.14 91.21 L 207.37 94.69 L 209.09 98.21 Z" fill="rgb(0, 0, 0)" stroke="rgb(0, 0, 0)" stroke-miterlimit="10" pointer-events="all"/></g></g></svg>