<?xml version="1.0" encoding="UTF-8"?>
<!DOCTYPE svg PUBLIC "-//W3C//DTD SVG 1.1//EN" "http://www.w3.org/Graphics/SVG/1.1/DTD/svg11.dtd">
<svg xmlns="http://www.w3.org/2000/svg" xmlns:xlink="http://www.w3.org/1999/xlink" version="1.1" width="743px" height="244px" viewBox="-0.5 -0.5 743 244"><defs><clipPath id="mx-clip-285-31-192-104-0"><rect x="285" y="31" width="192" height="104"/></clipPath><clipPath id="mx-clip-545-131-192-114-0"><rect x="545" y="131" width="192" height="114"/></clipPath><clipPath id="mx-clip-4-111-236-124-0"><rect x="4" y="111" width="236" height="124"/></clipPath></defs><g><g><path d="M 281.25 26 L 281.25 0 L 481.25 0 L 481.25 26" fill="rgb(255, 255, 255)" stroke="rgb(0, 0, 0)" stroke-miterlimit="10" pointer-events="all"/><path d="M 281.25 26 L 281.25 130 L 481.25 130 L 481.25 26" fill="none" stroke="rgb(0, 0, 0)" stroke-miterlimit="10" pointer-events="none"/><path d="M 281.25 26 L 481.25 26" fill="none" stroke="rgb(0, 0, 0)" stroke-miterlimit="10" pointer-events="none"/></g><g><g fill="rgb(0, 0, 0)" font-family="Helvetica" font-weight="bold" text-anchor="middle" font-size="14px"><text x="380.75" y="19.5">FriendManagerMsg</text></g></g><g><rect x="281.25" y="26" width="200" height="104" fill="#ffffff" stroke="none" pointer-events="all"/></g><g><g fill="rgb(0, 0, 0)" font-family="Helvetica" clip-path="url(#mx-clip-285-31-192-104-0)" font-size="12px"><text x="286.75" y="43.5">int64 modified_date = 1;</text><text x="286.75" y="57.5">string msgId = 2;</text><text x="286.75" y="71.5">E2eeAddress user_address = 3;</text><text x="286.75" y="85.5">string user_name = 4;</text><text x="286.75" y="99.5">FriendOp op = 5;</text><text x="286.75" y="113.5">FriendshipDTO friend = 6;</text></g></g><g><path d="M 541.25 126 L 541.25 100 L 741.25 100 L 741.25 126" fill="rgb(255, 255, 255)" stroke="rgb(0, 0, 0)" stroke-miterlimit="10" pointer-events="all"/><path d="M 541.25 126 L 541.25 240 L 741.25 240 L 741.25 126" fill="none" stroke="rgb(0, 0, 0)" stroke-miterlimit="10" pointer-events="none"/><path d="M 541.25 126 L 741.25 126" fill="none" stroke="rgb(0, 0, 0)" stroke-miterlimit="10" pointer-events="none"/></g><g><g fill="rgb(0, 0, 0)" font-family="Helvetica" font-weight="bold" text-anchor="middle" font-size="14px"><text x="640.75" y="119.5">FriendshipDTO</text></g></g><g><rect x="541.25" y="126" width="200" height="114" fill="#ffffff" stroke="none" pointer-events="all"/></g><g><g fill="rgb(0, 0, 0)" font-family="Helvetica" clip-path="url(#mx-clip-545-131-192-114-0)" font-size="12px"><text x="546.75" y="143.5">int64 modified_date = 1;</text><text x="546.75" y="157.5">string from_user = 2;</text><text x="546.75" y="171.5">string to_user = 3;</text><text x="546.75" y="185.5">string nickname = 4;</text><text x="546.75" y="199.5">string memoname = 5;</text><text x="546.75" y="213.5">int32 block_state = 6;</text><text x="546.75" y="227.5">int32 friend_status = 7;</text></g></g><g><path d="M 0 106 L 0 80 L 244 80 L 244 106" fill="rgb(255, 255, 255)" stroke="rgb(0, 0, 0)" stroke-miterlimit="10" pointer-events="all"/><path d="M 0 106 L 0 230 L 244 230 L 244 106" fill="none" stroke="rgb(0, 0, 0)" stroke-miterlimit="10" pointer-events="none"/><path d="M 0 106 L 244 106" fill="none" stroke="rgb(0, 0, 0)" stroke-miterlimit="10" pointer-events="none"/></g><g><g fill="rgb(0, 0, 0)" font-family="Helvetica" font-weight="bold" text-anchor="middle" font-size="14px"><text x="121.5" y="99.5">FriendOp</text></g></g><g><rect x="0" y="106" width="244" height="124" fill="#ffffff" stroke="none" pointer-events="all"/></g><g><g fill="rgb(0, 0, 0)" font-family="Helvetica" clip-path="url(#mx-clip-4-111-236-124-0)" font-size="12px"><text x="5.5" y="123.5">FRIEND_OP_ADDING_SEND = 0;</text><text x="5.5" y="137.5">FRIEND_OP_ADDING_RECEIVE = 1;</text><text x="5.5" y="151.5">FRIEND_OP_ADDED = 2;</text><text x="5.5" y="165.5">FRIEND_OP_BLOCKED = 3;</text><text x="5.5" y="179.5">FRIEND_OP_UNBLOCKED = 4;</text><text x="5.5" y="193.5">FRIEND_OP_REMOVED = 5;</text><text x="5.5" y="207.5">FRIEND_OP_UPDATE_MEMONAME = 6;</text><text x="5.5" y="221.5">FRIEND_OP_RECOMMEND = 7;</text></g></g><g><path d="M 436.05 110.03 L 534.68 109.95" fill="none" stroke="rgb(0, 0, 0)" stroke-miterlimit="10" pointer-events="stroke"/><path d="M 539.93 109.94 L 532.94 113.45 L 534.68 109.95 L 532.93 106.45 Z" fill="rgb(0, 0, 0)" stroke="rgb(0, 0, 0)" stroke-miterlimit="10" pointer-events="all"/></g><g><path d="M 285.05 95.05 L 246.46 95.01" fill="none" stroke="rgb(0, 0, 0)" stroke-miterlimit="10" pointer-events="stroke"/><path d="M 241.21 95 L 248.22 91.51 L 246.46 95.01 L 248.21 98.51 Z" fill="rgb(0, 0, 0)" stroke="rgb(0, 0, 0)" stroke-miterlimit="10" pointer-events="all"/></g></g></svg>