<?xml version="1.0" encoding="UTF-8"?>
<!DOCTYPE svg PUBLIC "-//W3C//DTD SVG 1.1//EN" "http://www.w3.org/Graphics/SVG/1.1/DTD/svg11.dtd">
<svg xmlns="http://www.w3.org/2000/svg" xmlns:xlink="http://www.w3.org/1999/xlink" version="1.1" width="1058px" height="544px" viewBox="-0.5 -0.5 1058 544"><defs><clipPath id="mx-clip-327-31-352-224-0"><rect x="327" y="31" width="352" height="224"/></clipPath><clipPath id="mx-clip-4-114-277-144-0"><rect x="4" y="114" width="277" height="144"/></clipPath><clipPath id="mx-clip-771-138-282-44-0"><rect x="771" y="138" width="282" height="44"/></clipPath><clipPath id="mx-clip-771-229-282-44-0"><rect x="771" y="229" width="282" height="44"/></clipPath><clipPath id="mx-clip-771-320-282-44-0"><rect x="771" y="320" width="282" height="44"/></clipPath><clipPath id="mx-clip-771-410-282-44-0"><rect x="771" y="410" width="282" height="44"/></clipPath><clipPath id="mx-clip-771-501-282-44-0"><rect x="771" y="501" width="282" height="44"/></clipPath><clipPath id="mx-clip-362-501-282-44-0"><rect x="362" y="501" width="282" height="44"/></clipPath><clipPath id="mx-clip-362-410-282-44-0"><rect x="362" y="410" width="282" height="44"/></clipPath><clipPath id="mx-clip-362-325-282-34-0"><rect x="362" y="325" width="282" height="34"/></clipPath></defs><g><g><path d="M 323 26 L 323 0 L 683 0 L 683 26" fill="rgb(255, 255, 255)" stroke="rgb(0, 0, 0)" stroke-miterlimit="10" pointer-events="all"/><path d="M 323 26 L 323 250 L 683 250 L 683 26" fill="none" stroke="rgb(0, 0, 0)" stroke-miterlimit="10" pointer-events="none"/><path d="M 323 26 L 683 26" fill="none" stroke="rgb(0, 0, 0)" stroke-miterlimit="10" pointer-events="none"/></g><g><g fill="rgb(0, 0, 0)" font-family="Helvetica" font-weight="bold" text-anchor="middle" font-size="14px"><text x="502.5" y="19.5">GroupManagerMsg</text></g></g><g><rect x="323" y="26" width="360" height="224" fill="#ffffff" stroke="none" pointer-events="all"/></g><g><g fill="rgb(0, 0, 0)" font-family="Helvetica" clip-path="url(#mx-clip-327-31-352-224-0)" font-size="12px"><text x="328.5" y="43.5">int64 modified_date = 1;</text><text x="328.5" y="57.5">string msgId = 2;</text><text x="328.5" y="71.5">E2eeAddress group_address = 3;</text><text x="328.5" y="85.5">string group_name = 4;</text><text x="328.5" y="99.5">GroupOp op = 5;</text><text x="328.5" y="113.5">oneof arg {</text><text x="328.5" y="127.5">  CreateGroupArg create_group_arg = 11;</text><text x="328.5" y="141.5">  UpdateGroupNameArg update_group_name_arg = 12;</text><text x="328.5" y="155.5">  UpdateGroupAvatarArg update_group_avatar_arg = 13;</text><text x="328.5" y="169.5">  UpdateGroupAdminsArg update_group_admins_arg = 14;</text><text x="328.5" y="183.5">  AddGroupMembersArg add_group_members_arg = 21;</text><text x="328.5" y="197.5">  JoinGroupArg join_group_arg = 22;</text><text x="328.5" y="211.5">  RemoveGroupMembersArg remove_group_members_arg = 23;</text><text x="328.5" y="225.5">  DestroyGroupArg destroy_group_arg = 30;</text><text x="328.5" y="239.5">};</text></g></g><g><path d="M 0 109 L 0 83 L 285 83 L 285 109" fill="rgb(255, 255, 255)" stroke="rgb(0, 0, 0)" stroke-miterlimit="10" pointer-events="all"/><path d="M 0 109 L 0 253 L 285 253 L 285 109" fill="none" stroke="rgb(0, 0, 0)" stroke-miterlimit="10" pointer-events="none"/><path d="M 0 109 L 285 109" fill="none" stroke="rgb(0, 0, 0)" stroke-miterlimit="10" pointer-events="none"/></g><g><g fill="rgb(0, 0, 0)" font-family="Helvetica" font-weight="bold" text-anchor="middle" font-size="14px"><text x="142" y="102.5">GroupOp</text></g></g><g><rect x="0" y="109" width="285" height="144" fill="#ffffff" stroke="none" pointer-events="all"/></g><g><g fill="rgb(0, 0, 0)" font-family="Helvetica" clip-path="url(#mx-clip-4-114-277-144-0)" font-size="12px"><text x="5.5" y="126.5">GROUP_OP_UNKNOWN = 0;</text><text x="5.5" y="140.5">GROUP_OP_CREATE_GROUP = 11;</text><text x="5.5" y="154.5">GROUP_OP_UPDATE_GROUP_NAME = 12;</text><text x="5.5" y="168.5">GROUP_OP_UPDATE_GROUP_AVATAR = 13;</text><text x="5.5" y="182.5">GROUP_OP_UPDATE_GROUP_ADMINS = 14;</text><text x="5.5" y="196.5">GROUP_OP_ADD_GROUP_MEMBERS = 21;</text><text x="5.5" y="210.5">GROUP_OP_JOIN_GROUP = 22;</text><text x="5.5" y="224.5">GROUP_OP_REMOVE_GROUP_MEMBERS = 23;</text><text x="5.5" y="238.5">GROUP_OP_DESTROY_GROUP = 30;</text></g></g><g><path d="M 327 96 L 291.37 95.64" fill="none" stroke="rgb(0, 0, 0)" stroke-miterlimit="10" pointer-events="stroke"/><path d="M 286.12 95.59 L 293.15 92.16 L 291.37 95.64 L 293.08 99.16 Z" fill="rgb(0, 0, 0)" stroke="rgb(0, 0, 0)" stroke-miterlimit="10" pointer-events="all"/></g><g><path d="M 767 133 L 767 107 L 1057 107 L 1057 133" fill="rgb(255, 255, 255)" stroke="rgb(0, 0, 0)" stroke-miterlimit="10" pointer-events="all"/><path d="M 767 133 L 767 177 L 1057 177 L 1057 133" fill="none" stroke="rgb(0, 0, 0)" stroke-miterlimit="10" pointer-events="none"/><path d="M 767 133 L 1057 133" fill="none" stroke="rgb(0, 0, 0)" stroke-miterlimit="10" pointer-events="none"/></g><g><g fill="rgb(0, 0, 0)" font-family="Helvetica" font-weight="bold" text-anchor="middle" font-size="14px"><text x="911.5" y="126.5">CreateGroupArg</text></g></g><g><rect x="767" y="133" width="290" height="44" fill="#ffffff" stroke="none" pointer-events="all"/></g><g><g fill="rgb(0, 0, 0)" font-family="Helvetica" clip-path="url(#mx-clip-771-138-282-44-0)" font-size="12px"><text x="772.5" y="150.5">E2eeAddress creator_address = 1;</text><text x="772.5" y="164.5">repeated GroupMember group_member_list = 2;</text></g></g><g><path d="M 767 224 L 767 198 L 1057 198 L 1057 224" fill="rgb(255, 255, 255)" stroke="rgb(0, 0, 0)" stroke-miterlimit="10" pointer-events="all"/><path d="M 767 224 L 767 268 L 1057 268 L 1057 224" fill="none" stroke="rgb(0, 0, 0)" stroke-miterlimit="10" pointer-events="none"/><path d="M 767 224 L 1057 224" fill="none" stroke="rgb(0, 0, 0)" stroke-miterlimit="10" pointer-events="none"/></g><g><g fill="rgb(0, 0, 0)" font-family="Helvetica" font-weight="bold" text-anchor="middle" font-size="14px"><text x="911.5" y="217.5">UpdateGroupNameArg</text></g></g><g><rect x="767" y="224" width="290" height="44" fill="#ffffff" stroke="none" pointer-events="all"/></g><g><g fill="rgb(0, 0, 0)" font-family="Helvetica" clip-path="url(#mx-clip-771-229-282-44-0)" font-size="12px"><text x="772.5" y="241.5">E2eeAddress user_address = 1;</text><text x="772.5" y="255.5">string group_name = 2;</text></g></g><g><path d="M 767 315 L 767 289 L 1057 289 L 1057 315" fill="rgb(255, 255, 255)" stroke="rgb(0, 0, 0)" stroke-miterlimit="10" pointer-events="all"/><path d="M 767 315 L 767 359 L 1057 359 L 1057 315" fill="none" stroke="rgb(0, 0, 0)" stroke-miterlimit="10" pointer-events="none"/><path d="M 767 315 L 1057 315" fill="none" stroke="rgb(0, 0, 0)" stroke-miterlimit="10" pointer-events="none"/></g><g><g fill="rgb(0, 0, 0)" font-family="Helvetica" font-weight="bold" text-anchor="middle" font-size="14px"><text x="911.5" y="308.5">UpdateGroupAvatarArg</text></g></g><g><rect x="767" y="315" width="290" height="44" fill="#ffffff" stroke="none" pointer-events="all"/></g><g><g fill="rgb(0, 0, 0)" font-family="Helvetica" clip-path="url(#mx-clip-771-320-282-44-0)" font-size="12px"><text x="772.5" y="332.5">E2eeAddress user_address = 1;</text><text x="772.5" y="346.5">string groupAvatarUrl = 2;</text></g></g><g><path d="M 767 405 L 767 379 L 1057 379 L 1057 405" fill="rgb(255, 255, 255)" stroke="rgb(0, 0, 0)" stroke-miterlimit="10" pointer-events="all"/><path d="M 767 405 L 767 449 L 1057 449 L 1057 405" fill="none" stroke="rgb(0, 0, 0)" stroke-miterlimit="10" pointer-events="none"/><path d="M 767 405 L 1057 405" fill="none" stroke="rgb(0, 0, 0)" stroke-miterlimit="10" pointer-events="none"/></g><g><g fill="rgb(0, 0, 0)" font-family="Helvetica" font-weight="bold" text-anchor="middle" font-size="14px"><text x="911.5" y="398.5">UpdateGroupAdminsArg</text></g></g><g><rect x="767" y="405" width="290" height="44" fill="#ffffff" stroke="none" pointer-events="all"/></g><g><g fill="rgb(0, 0, 0)" font-family="Helvetica" clip-path="url(#mx-clip-771-410-282-44-0)" font-size="12px"><text x="772.5" y="422.5">E2eeAddress user_address = 1;</text><text x="772.5" y="436.5">repeated GroupMember group_admin_list = 2;</text></g></g><g><path d="M 767 496 L 767 470 L 1057 470 L 1057 496" fill="rgb(255, 255, 255)" stroke="rgb(0, 0, 0)" stroke-miterlimit="10" pointer-events="all"/><path d="M 767 496 L 767 540 L 1057 540 L 1057 496" fill="none" stroke="rgb(0, 0, 0)" stroke-miterlimit="10" pointer-events="none"/><path d="M 767 496 L 1057 496" fill="none" stroke="rgb(0, 0, 0)" stroke-miterlimit="10" pointer-events="none"/></g><g><g fill="rgb(0, 0, 0)" font-family="Helvetica" font-weight="bold" text-anchor="middle" font-size="14px"><text x="911.5" y="489.5">AddGroupMembersArg</text></g></g><g><rect x="767" y="496" width="290" height="44" fill="#ffffff" stroke="none" pointer-events="all"/></g><g><g fill="rgb(0, 0, 0)" font-family="Helvetica" clip-path="url(#mx-clip-771-501-282-44-0)" font-size="12px"><text x="772.5" y="513.5">E2eeAddress user_address = 1;</text><text x="772.5" y="527.5">repeated GroupMember added_member_list = 2;</text></g></g><g><path d="M 358 496 L 358 470 L 648 470 L 648 496" fill="rgb(255, 255, 255)" stroke="rgb(0, 0, 0)" stroke-miterlimit="10" pointer-events="all"/><path d="M 358 496 L 358 540 L 648 540 L 648 496" fill="none" stroke="rgb(0, 0, 0)" stroke-miterlimit="10" pointer-events="none"/><path d="M 358 496 L 648 496" fill="none" stroke="rgb(0, 0, 0)" stroke-miterlimit="10" pointer-events="none"/></g><g><g fill="rgb(0, 0, 0)" font-family="Helvetica" font-weight="bold" text-anchor="middle" font-size="14px"><text x="502.5" y="489.5">JoinGroupArg</text></g></g><g><rect x="358" y="496" width="290" height="44" fill="#ffffff" stroke="none" pointer-events="all"/></g><g><g fill="rgb(0, 0, 0)" font-family="Helvetica" clip-path="url(#mx-clip-362-501-282-44-0)" font-size="12px"><text x="363.5" y="513.5">E2eeAddress user_address = 1;</text><text x="363.5" y="527.5">GroupMember joined_member = 2;</text></g></g><g><path d="M 358 405 L 358 379 L 648 379 L 648 405" fill="rgb(255, 255, 255)" stroke="rgb(0, 0, 0)" stroke-miterlimit="10" pointer-events="all"/><path d="M 358 405 L 358 449 L 648 449 L 648 405" fill="none" stroke="rgb(0, 0, 0)" stroke-miterlimit="10" pointer-events="none"/><path d="M 358 405 L 648 405" fill="none" stroke="rgb(0, 0, 0)" stroke-miterlimit="10" pointer-events="none"/></g><g><g fill="rgb(0, 0, 0)" font-family="Helvetica" font-weight="bold" text-anchor="middle" font-size="14px"><text x="502.5" y="398.5">RemoveGroupMembersArg</text></g></g><g><rect x="358" y="405" width="290" height="44" fill="#ffffff" stroke="none" pointer-events="all"/></g><g><g fill="rgb(0, 0, 0)" font-family="Helvetica" clip-path="url(#mx-clip-362-410-282-44-0)" font-size="12px"><text x="363.5" y="422.5">E2eeAddress user_address = 1;</text><text x="363.5" y="436.5">repeated GroupMember removed_member_list = 2;</text></g></g><g><path d="M 358 320 L 358 294 L 648 294 L 648 320" fill="rgb(255, 255, 255)" stroke="rgb(0, 0, 0)" stroke-miterlimit="10" pointer-events="all"/><path d="M 358 320 L 358 354 L 648 354 L 648 320" fill="none" stroke="rgb(0, 0, 0)" stroke-miterlimit="10" pointer-events="none"/><path d="M 358 320 L 648 320" fill="none" stroke="rgb(0, 0, 0)" stroke-miterlimit="10" pointer-events="none"/></g><g><g fill="rgb(0, 0, 0)" font-family="Helvetica" font-weight="bold" text-anchor="middle" font-size="14px"><text x="502.5" y="313.5">DestroyGroupArg</text></g></g><g><rect x="358" y="320" width="290" height="34" fill="#ffffff" stroke="none" pointer-events="all"/></g><g><g fill="rgb(0, 0, 0)" font-family="Helvetica" clip-path="url(#mx-clip-362-325-282-34-0)" font-size="12px"><text x="363.5" y="337.5">E2eeAddress user_address = 1;</text></g></g><g><path d="M 677 124.44 L 760.63 124.5" fill="none" stroke="rgb(0, 0, 0)" stroke-miterlimit="10" pointer-events="stroke"/><path d="M 765.88 124.5 L 758.88 127.99 L 760.63 124.5 L 758.88 120.99 Z" fill="rgb(0, 0, 0)" stroke="rgb(0, 0, 0)" stroke-miterlimit="10" pointer-events="all"/></g><g><path d="M 677 138.44 L 747 138 L 747 210 L 760.63 210" fill="none" stroke="rgb(0, 0, 0)" stroke-miterlimit="10" pointer-events="stroke"/><path d="M 765.88 210 L 758.88 213.5 L 760.63 210 L 758.88 206.5 Z" fill="rgb(0, 0, 0)" stroke="rgb(0, 0, 0)" stroke-miterlimit="10" pointer-events="all"/></g><g><path d="M 677 151.44 L 737 151 L 737 191 L 737 299 L 760.92 298.73" fill="none" stroke="rgb(0, 0, 0)" stroke-miterlimit="10" pointer-events="stroke"/><path d="M 766.17 298.67 L 759.21 302.25 L 760.92 298.73 L 759.13 295.25 Z" fill="rgb(0, 0, 0)" stroke="rgb(0, 0, 0)" stroke-miterlimit="10" pointer-events="all"/></g><g><path d="M 677 165.44 L 727 165 L 727 200 L 727 390 L 760.34 389.76" fill="none" stroke="rgb(0, 0, 0)" stroke-miterlimit="10" pointer-events="stroke"/><path d="M 765.59 389.72 L 758.62 393.27 L 760.34 389.76 L 758.57 386.27 Z" fill="rgb(0, 0, 0)" stroke="rgb(0, 0, 0)" stroke-miterlimit="10" pointer-events="all"/></g><g><path d="M 677 179.44 L 717 180 L 717 480 L 757.73 480.25" fill="none" stroke="rgb(0, 0, 0)" stroke-miterlimit="10" pointer-events="stroke"/><path d="M 762.98 480.28 L 755.96 483.74 L 757.73 480.25 L 756 476.74 Z" fill="rgb(0, 0, 0)" stroke="rgb(0, 0, 0)" stroke-miterlimit="10" pointer-events="all"/></g><g><path d="M 677 193 L 707 193 L 707 480 L 653.79 480.7" fill="none" stroke="rgb(0, 0, 0)" stroke-miterlimit="10" pointer-events="stroke"/><path d="M 648.54 480.77 L 655.49 477.17 L 653.79 480.7 L 655.58 484.17 Z" fill="rgb(0, 0, 0)" stroke="rgb(0, 0, 0)" stroke-miterlimit="10" pointer-events="all"/></g><g><path d="M 676.88 209.9 L 697 210 L 697 390 L 653.21 389.69" fill="none" stroke="rgb(0, 0, 0)" stroke-miterlimit="10" pointer-events="stroke"/><path d="M 647.96 389.65 L 654.98 386.2 L 653.21 389.69 L 654.93 393.2 Z" fill="rgb(0, 0, 0)" stroke="rgb(0, 0, 0)" stroke-miterlimit="10" pointer-events="all"/></g><g><path d="M 677 223 L 687 223 L 687 302 L 653.21 301.88" fill="none" stroke="rgb(0, 0, 0)" stroke-miterlimit="10" pointer-events="stroke"/><path d="M 647.96 301.86 L 654.97 298.39 L 653.21 301.88 L 654.95 305.39 Z" fill="rgb(0, 0, 0)" stroke="rgb(0, 0, 0)" stroke-miterlimit="10" pointer-events="all"/></g></g></svg>