<?xml version="1.0" encoding="UTF-8"?>
<!DOCTYPE svg PUBLIC "-//W3C//DTD SVG 1.1//EN" "http://www.w3.org/Graphics/SVG/1.1/DTD/svg11.dtd">
<svg xmlns="http://www.w3.org/2000/svg" xmlns:xlink="http://www.w3.org/1999/xlink" version="1.1" width="638px" height="352px" viewBox="-0.5 -0.5 638 352"><defs><clipPath id="mx-clip-4-31-281-84-0"><rect x="4" y="31" width="281" height="84"/></clipPath><clipPath id="mx-clip-339-87-262-64-0"><rect x="339" y="87" width="262" height="64"/></clipPath><clipPath id="mx-clip-33-167-212-44-0"><rect x="33" y="167" width="212" height="44"/></clipPath><clipPath id="mx-clip-396-216-112-54-0"><rect x="396" y="216" width="112" height="54"/></clipPath><clipPath id="mx-clip-88-269-246-84-0"><rect x="88" y="269" width="246" height="84"/></clipPath></defs><g><g><path d="M 0 26 L 0 0 L 289 0 L 289 26" fill="rgb(255, 255, 255)" stroke="rgb(0, 0, 0)" stroke-miterlimit="10" pointer-events="all"/><path d="M 0 26 L 0 110 L 289 110 L 289 26" fill="none" stroke="rgb(0, 0, 0)" stroke-miterlimit="10" pointer-events="none"/><path d="M 0 26 L 289 26" fill="none" stroke="rgb(0, 0, 0)" stroke-miterlimit="10" pointer-events="none"/></g><g><g fill="rgb(0, 0, 0)" font-family="Helvetica" font-weight="bold" text-anchor="middle" font-size="14px"><text x="144" y="19.5">RemoveGroupMembersMsg</text></g></g><g><rect x="0" y="26" width="289" height="84" fill="#ffffff" stroke="none" pointer-events="all"/></g><g><g fill="rgb(0, 0, 0)" font-family="Helvetica" clip-path="url(#mx-clip-4-31-281-84-0)" font-size="12px"><text x="5.5" y="43.5">uint32 e2ee_pack_id = 1;</text><text x="5.5" y="57.5">E2eeAddress sender_address = 2;</text><text x="5.5" y="71.5">GroupInfo group_info = 3;</text><text x="5.5" y="85.5">repeated GroupMember removing_member_list = 4;</text><text x="5.5" y="99.5">repeated GroupMemberInfo member_info_list = 5;</text></g></g><g><path d="M 335 82 L 335 56 L 605 56 L 605 82" fill="rgb(255, 255, 255)" stroke="rgb(0, 0, 0)" stroke-miterlimit="10" pointer-events="all"/><path d="M 335 82 L 335 146 L 605 146 L 605 82" fill="none" stroke="rgb(0, 0, 0)" stroke-miterlimit="10" pointer-events="none"/><path d="M 335 82 L 605 82" fill="none" stroke="rgb(0, 0, 0)" stroke-miterlimit="10" pointer-events="none"/></g><g><g fill="rgb(0, 0, 0)" font-family="Helvetica" font-weight="bold" text-anchor="middle" font-size="14px"><text x="469.5" y="75.5">GroupInfo</text></g></g><g><rect x="335" y="82" width="270" height="64" fill="#ffffff" stroke="none" pointer-events="all"/></g><g><g fill="rgb(0, 0, 0)" font-family="Helvetica" clip-path="url(#mx-clip-339-87-262-64-0)" font-size="12px"><text x="340.5" y="99.5">string group_name = 1;</text><text x="340.5" y="113.5">E2eeAddress group_address = 2;</text><text x="340.5" y="127.5">repeated GroupMember group_member_list = 3;</text></g></g><g><path d="M 29 162 L 29 136 L 249 136 L 249 162" fill="rgb(255, 255, 255)" stroke="rgb(0, 0, 0)" stroke-miterlimit="10" pointer-events="all"/><path d="M 29 162 L 29 206 L 249 206 L 249 162" fill="none" stroke="rgb(0, 0, 0)" stroke-miterlimit="10" pointer-events="none"/><path d="M 29 162 L 249 162" fill="none" stroke="rgb(0, 0, 0)" stroke-miterlimit="10" pointer-events="none"/></g><g><g fill="rgb(0, 0, 0)" font-family="Helvetica" font-weight="bold" text-anchor="middle" font-size="14px"><text x="138.5" y="155.5">GroupMemberInfo</text></g></g><g><rect x="29" y="162" width="220" height="44" fill="#ffffff" stroke="none" pointer-events="all"/></g><g><g fill="rgb(0, 0, 0)" font-family="Helvetica" clip-path="url(#mx-clip-33-167-212-44-0)" font-size="12px"><text x="34.5" y="179.5">E2eeAddress member_address = 1;</text><text x="34.5" y="193.5">bytes sign_public_key = 2;</text></g></g><g><path d="M 275 96 L 275 97 L 303 97 L 303 152 L 255.37 152" fill="none" stroke="rgb(0, 0, 0)" stroke-miterlimit="10" pointer-events="stroke"/><path d="M 250.12 152 L 257.12 148.5 L 255.37 152 L 257.12 155.5 Z" fill="rgb(0, 0, 0)" stroke="rgb(0, 0, 0)" stroke-miterlimit="10" pointer-events="all"/></g><g><path d="M 392 211 L 392 185 L 512 185 L 512 211" fill="rgb(255, 255, 255)" stroke="rgb(0, 0, 0)" stroke-miterlimit="10" pointer-events="all"/><path d="M 392 211 L 392 265 L 512 265 L 512 211" fill="none" stroke="rgb(0, 0, 0)" stroke-miterlimit="10" pointer-events="none"/><path d="M 392 211 L 512 211" fill="none" stroke="rgb(0, 0, 0)" stroke-miterlimit="10" pointer-events="none"/></g><g><g fill="rgb(0, 0, 0)" font-family="Helvetica" font-weight="bold" text-anchor="middle" font-size="14px"><text x="451.5" y="204.5">GroupMember</text></g></g><g><rect x="392" y="211" width="120" height="54" fill="#ffffff" stroke="none" pointer-events="all"/></g><g><g fill="rgb(0, 0, 0)" font-family="Helvetica" clip-path="url(#mx-clip-396-216-112-54-0)" font-size="12px"><text x="397.5" y="228.5">string user_id = 1;</text><text x="397.5" y="242.5">string domain = 2;</text><text x="397.5" y="256.5">GroupRole role = 3;</text></g></g><g><path d="M 605 123.5 L 605 125 L 629 125 L 629 195.42 L 516.81 195.4" fill="none" stroke="rgb(0, 0, 0)" stroke-miterlimit="10" pointer-events="stroke"/><path d="M 511.56 195.4 L 518.56 191.9 L 516.81 195.4 L 518.56 198.9 Z" fill="rgb(0, 0, 0)" stroke="rgb(0, 0, 0)" stroke-miterlimit="10" pointer-events="all"/></g><g><path d="M 145 69 L 329.98 69.48" fill="none" stroke="rgb(0, 0, 0)" stroke-miterlimit="10" pointer-events="stroke"/><path d="M 335.23 69.5 L 328.22 72.98 L 329.98 69.48 L 328.24 65.98 Z" fill="rgb(0, 0, 0)" stroke="rgb(0, 0, 0)" stroke-miterlimit="10" pointer-events="all"/></g><g><path d="M 83.68 264 L 83.68 238 L 337.68 238 L 337.68 264" fill="rgb(255, 255, 255)" stroke="rgb(0, 0, 0)" stroke-miterlimit="10" pointer-events="all"/><path d="M 83.68 264 L 83.68 348 L 337.68 348 L 337.68 264" fill="none" stroke="rgb(0, 0, 0)" stroke-miterlimit="10" pointer-events="none"/><path d="M 83.68 264 L 337.68 264" fill="none" stroke="rgb(0, 0, 0)" stroke-miterlimit="10" pointer-events="none"/></g><g><g fill="rgb(0, 0, 0)" font-family="Helvetica" font-weight="bold" text-anchor="middle" font-size="14px"><text x="210.18" y="257.5">GroupRole</text></g></g><g><rect x="83.68" y="264" width="254" height="84" fill="#ffffff" stroke="none" pointer-events="all"/></g><g><g fill="rgb(0, 0, 0)" font-family="Helvetica" clip-path="url(#mx-clip-88-269-246-84-0)" font-size="12px"><text x="89.18" y="281.5">GROUP_ROLE_MEMBER = 0;</text><text x="89.18" y="295.5">GROUP_ROLE_MANAGER = 1;</text><text x="89.18" y="323.5">GROUP_ROLE_PENDING_MEMBER = 10;</text><text x="89.18" y="337.5">GROUP_ROLE_PENDING_MANAGER = 11;</text></g></g><g><path d="M 396 253.01 L 343.29 253.26" fill="none" stroke="rgb(0, 0, 0)" stroke-miterlimit="10" pointer-events="stroke"/><path d="M 338.04 253.28 L 345.02 249.75 L 343.29 253.26 L 345.05 256.75 Z" fill="rgb(0, 0, 0)" stroke="rgb(0, 0, 0)" stroke-miterlimit="10" pointer-events="all"/></g></g></svg>