<?xml version="1.0" encoding="UTF-8"?>
<!DOCTYPE svg PUBLIC "-//W3C//DTD SVG 1.1//EN" "http://www.w3.org/Graphics/SVG/1.1/DTD/svg11.dtd">
<svg xmlns="http://www.w3.org/2000/svg" xmlns:xlink="http://www.w3.org/1999/xlink" version="1.1" width="502px" height="144px" viewBox="-0.5 -0.5 502 144"><defs><clipPath id="mx-clip-4-31-153-64-0"><rect x="4" y="31" width="153" height="64"/></clipPath><clipPath id="mx-clip-225-61-272-84-0"><rect x="225" y="61" width="272" height="84"/></clipPath></defs><g><g><path d="M 0 26 L 0 0 L 161 0 L 161 26" fill="rgb(255, 255, 255)" stroke="rgb(0, 0, 0)" stroke-miterlimit="10" pointer-events="all"/><path d="M 0 26 L 0 90 L 161 90 L 161 26" fill="none" stroke="rgb(0, 0, 0)" stroke-miterlimit="10" pointer-events="none"/><path d="M 0 26 L 161 26" fill="none" stroke="rgb(0, 0, 0)" stroke-miterlimit="10" pointer-events="none"/></g><g><g fill="rgb(0, 0, 0)" font-family="Helvetica" font-weight="bold" text-anchor="middle" font-size="14px"><text x="80" y="19.5">SystemManagerMsg</text></g></g><g><rect x="0" y="26" width="161" height="64" fill="#ffffff" stroke="none" pointer-events="all"/></g><g><g fill="rgb(0, 0, 0)" font-family="Helvetica" clip-path="url(#mx-clip-4-31-153-64-0)" font-size="12px"><text x="5.5" y="43.5">int64 modifiedDate = 1;</text><text x="5.5" y="57.5">SystemOp op = 2;</text><text x="5.5" y="71.5">bytes payload = 3;</text></g></g><g><path d="M 221 56 L 221 30 L 501 30 L 501 56" fill="rgb(255, 255, 255)" stroke="rgb(0, 0, 0)" stroke-miterlimit="10" pointer-events="all"/><path d="M 221 56 L 221 140 L 501 140 L 501 56" fill="none" stroke="rgb(0, 0, 0)" stroke-miterlimit="10" pointer-events="none"/><path d="M 221 56 L 501 56" fill="none" stroke="rgb(0, 0, 0)" stroke-miterlimit="10" pointer-events="none"/></g><g><g fill="rgb(0, 0, 0)" font-family="Helvetica" font-weight="bold" text-anchor="middle" font-size="14px"><text x="360.5" y="49.5">SystemOp</text></g></g><g><rect x="221" y="56" width="280" height="84" fill="#ffffff" stroke="none" pointer-events="all"/></g><g><g fill="rgb(0, 0, 0)" font-family="Helvetica" clip-path="url(#mx-clip-225-61-272-84-0)" font-size="12px"><text x="226.5" y="73.5">SYSTEM_OP_WELCOME_MSG = 0;</text><text x="226.5" y="87.5">SYSTEM_OP_REGISTER_MSG = 1;</text><text x="226.5" y="101.5">SYSTEM_OP_REGISTER_SUCCESS_MSG = 2;</text><text x="226.5" y="115.5">SYSTEM_OP_ANNOUNCEMENT_MSG = 3;</text><text x="226.5" y="129.5">SYSTEM_OP_NOTIFICATION_MSG = 4;</text></g></g><g><path d="M 120 50 L 209.03 50.84" fill="none" stroke="rgb(0, 0, 0)" stroke-miterlimit="10" pointer-events="stroke"/><path d="M 214.28 50.89 L 207.25 54.32 L 209.03 50.84 L 207.32 47.32 Z" fill="rgb(0, 0, 0)" stroke="rgb(0, 0, 0)" stroke-miterlimit="10" pointer-events="all"/></g></g></svg>