<?xml version="1.0" encoding="UTF-8"?>
<!DOCTYPE svg PUBLIC "-//W3C//DTD SVG 1.1//EN" "http://www.w3.org/Graphics/SVG/1.1/DTD/svg11.dtd">
<svg xmlns="http://www.w3.org/2000/svg" xmlns:xlink="http://www.w3.org/1999/xlink" version="1.1" width="491px" height="134px" viewBox="-0.5 -0.5 491 134"><defs><clipPath id="mx-clip-4-31-192-64-0"><rect x="4" y="31" width="192" height="64"/></clipPath><clipPath id="mx-clip-294-61-192-74-0"><rect x="294" y="61" width="192" height="74"/></clipPath></defs><g><g><path d="M 0 26 L 0 0 L 200 0 L 200 26" fill="rgb(255, 255, 255)" stroke="rgb(0, 0, 0)" stroke-miterlimit="10" pointer-events="all"/><path d="M 0 26 L 0 90 L 200 90 L 200 26" fill="none" stroke="rgb(0, 0, 0)" stroke-miterlimit="10" pointer-events="none"/><path d="M 0 26 L 200 26" fill="none" stroke="rgb(0, 0, 0)" stroke-miterlimit="10" pointer-events="none"/></g><g><g fill="rgb(0, 0, 0)" font-family="Helvetica" font-weight="bold" text-anchor="middle" font-size="14px"><text x="99.5" y="19.5">SystemManagerMsg</text></g></g><g><rect x="0" y="26" width="200" height="64" fill="#ffffff" stroke="none" pointer-events="all"/></g><g><g fill="rgb(0, 0, 0)" font-family="Helvetica" clip-path="url(#mx-clip-4-31-192-64-0)" font-size="12px"><text x="5.5" y="43.5">int64 modifiedDate = 1;</text><text x="5.5" y="57.5">SystemOp op = 2;</text><text x="5.5" y="71.5">repeated string args = 3;</text></g></g><g><path d="M 290 56 L 290 30 L 490 30 L 490 56" fill="rgb(255, 255, 255)" stroke="rgb(0, 0, 0)" stroke-miterlimit="10" pointer-events="all"/><path d="M 290 56 L 290 130 L 490 130 L 490 56" fill="none" stroke="rgb(0, 0, 0)" stroke-miterlimit="10" pointer-events="none"/><path d="M 290 56 L 490 56" fill="none" stroke="rgb(0, 0, 0)" stroke-miterlimit="10" pointer-events="none"/></g><g><g fill="rgb(0, 0, 0)" font-family="Helvetica" font-weight="bold" text-anchor="middle" font-size="14px"><text x="389.5" y="49.5">SystemOp</text></g></g><g><rect x="290" y="56" width="200" height="74" fill="#ffffff" stroke="none" pointer-events="all"/></g><g><g fill="rgb(0, 0, 0)" font-family="Helvetica" clip-path="url(#mx-clip-294-61-192-74-0)" font-size="12px"><text x="295.5" y="73.5">WELCOME_MSG = 0;</text><text x="295.5" y="87.5">REGISTER_MSG = 1;</text><text x="295.5" y="101.5">REGISTER_SUCCESS_MSG = 2;</text><text x="295.5" y="115.5">ANNOUNCEMENT_MSG = 3;</text></g></g><g><path d="M 120 50 L 279.63 49.04" fill="none" stroke="rgb(0, 0, 0)" stroke-miterlimit="10" pointer-events="stroke"/><path d="M 284.88 49.01 L 277.9 52.55 L 279.63 49.04 L 277.86 45.55 Z" fill="rgb(0, 0, 0)" stroke="rgb(0, 0, 0)" stroke-miterlimit="10" pointer-events="all"/></g></g></svg>