<?xml version="1.0" encoding="UTF-8"?>
<!DOCTYPE svg PUBLIC "-//W3C//DTD SVG 1.1//EN" "http://www.w3.org/Graphics/SVG/1.1/DTD/svg11.dtd">
<svg xmlns="http://www.w3.org/2000/svg" xmlns:xlink="http://www.w3.org/1999/xlink" version="1.1" width="773px" height="318px" viewBox="-0.5 -0.5 773 318"><defs><clipPath id="mx-clip-220-161-332-144-0"><rect x="220" y="161" width="332" height="144"/></clipPath><clipPath id="mx-clip-260-31-172-74-0"><rect x="260" y="31" width="172" height="74"/></clipPath><clipPath id="mx-clip-4-161-172-34-0"><rect x="4" y="161" width="172" height="34"/></clipPath><clipPath id="mx-clip-4-273-172-34-0"><rect x="4" y="273" width="172" height="34"/></clipPath><clipPath id="mx-clip-596-161-172-34-0"><rect x="596" y="161" width="172" height="34"/></clipPath><clipPath id="mx-clip-596-285-172-34-0"><rect x="596" y="285" width="172" height="34"/></clipPath></defs><g><g><path d="M 216 156 L 216 130 L 556 130 L 556 156" fill="rgb(255, 255, 255)" stroke="rgb(0, 0, 0)" stroke-miterlimit="10" pointer-events="all"/><path d="M 216 156 L 216 300 L 556 300 L 556 156" fill="none" stroke="rgb(0, 0, 0)" stroke-miterlimit="10" pointer-events="none"/><path d="M 216 156 L 556 156" fill="none" stroke="rgb(0, 0, 0)" stroke-miterlimit="10" pointer-events="none"/></g><g><g fill="rgb(0, 0, 0)" font-family="Helvetica" font-weight="bold" text-anchor="middle" font-size="14px"><text x="385.5" y="149.5">UpdateUserMsg</text></g></g><g><rect x="216" y="156" width="340" height="144" fill="#ffffff" stroke="none" pointer-events="all"/></g><g><g fill="rgb(0, 0, 0)" font-family="Helvetica" clip-path="url(#mx-clip-220-161-332-144-0)" font-size="12px"><text x="221.5" y="173.5">int64 modifiedDate = 1;</text><text x="221.5" y="187.5">E2eeAddress user_address = 2;</text><text x="221.5" y="201.5">UpdateUserOp op = 3;</text><text x="221.5" y="215.5">oneof arg {</text><text x="221.5" y="229.5">    UpdateUserNameArg update_user_name_arg = 4;</text><text x="221.5" y="243.5">    UpdateUserAvatarArg update_user_avatar_arg = 5;</text><text x="221.5" y="257.5">    UpdateUserStateArg update_user_state_arg = 6;</text><text x="221.5" y="271.5">    UpdateUserPrivacyArg update_user_privacy_arg = 7;</text><text x="221.5" y="285.5">}</text></g></g><g><path d="M 256 26 L 256 0 L 436 0 L 436 26" fill="rgb(255, 255, 255)" stroke="rgb(0, 0, 0)" stroke-miterlimit="10" pointer-events="all"/><path d="M 256 26 L 256 100 L 436 100 L 436 26" fill="none" stroke="rgb(0, 0, 0)" stroke-miterlimit="10" pointer-events="none"/><path d="M 256 26 L 436 26" fill="none" stroke="rgb(0, 0, 0)" stroke-miterlimit="10" pointer-events="none"/></g><g><g fill="rgb(0, 0, 0)" font-family="Helvetica" font-weight="bold" text-anchor="middle" font-size="14px"><text x="345.5" y="19.5">UpdateUserOp</text></g></g><g><rect x="256" y="26" width="180" height="74" fill="#ffffff" stroke="none" pointer-events="all"/></g><g><g fill="rgb(0, 0, 0)" font-family="Helvetica" clip-path="url(#mx-clip-260-31-172-74-0)" font-size="12px"><text x="261.5" y="43.5">UPDATE_USER_NAME = 0;</text><text x="261.5" y="57.5">UPDATE_USER_AVATAR = 1;</text><text x="261.5" y="71.5">UPDATE_USER_STATE = 2;</text><text x="261.5" y="85.5">UPDATE_USER_PRIVACY = 3;</text></g></g><g><path d="M 0 156 L 0 130 L 180 130 L 180 156" fill="rgb(255, 255, 255)" stroke="rgb(0, 0, 0)" stroke-miterlimit="10" pointer-events="all"/><path d="M 0 156 L 0 190 L 180 190 L 180 156" fill="none" stroke="rgb(0, 0, 0)" stroke-miterlimit="10" pointer-events="none"/><path d="M 0 156 L 180 156" fill="none" stroke="rgb(0, 0, 0)" stroke-miterlimit="10" pointer-events="none"/></g><g><g fill="rgb(0, 0, 0)" font-family="Helvetica" font-weight="bold" text-anchor="middle" font-size="14px"><text x="89.5" y="149.5">UpdateUserNameArg</text></g></g><g><rect x="0" y="156" width="180" height="34" fill="#ffffff" stroke="none" pointer-events="all"/></g><g><g fill="rgb(0, 0, 0)" font-family="Helvetica" clip-path="url(#mx-clip-4-161-172-34-0)" text-anchor="middle" font-size="12px"><text x="89.5" y="173.5">string username = 1;</text></g></g><g><path d="M 0 268 L 0 242 L 180 242 L 180 268" fill="rgb(255, 255, 255)" stroke="rgb(0, 0, 0)" stroke-miterlimit="10" pointer-events="all"/><path d="M 0 268 L 0 302 L 180 302 L 180 268" fill="none" stroke="rgb(0, 0, 0)" stroke-miterlimit="10" pointer-events="none"/><path d="M 0 268 L 180 268" fill="none" stroke="rgb(0, 0, 0)" stroke-miterlimit="10" pointer-events="none"/></g><g><g fill="rgb(0, 0, 0)" font-family="Helvetica" font-weight="bold" text-anchor="middle" font-size="14px"><text x="89.5" y="261.5">UpdateUserStateArg</text></g></g><g><rect x="0" y="268" width="180" height="34" fill="#ffffff" stroke="none" pointer-events="all"/></g><g><g fill="rgb(0, 0, 0)" font-family="Helvetica" clip-path="url(#mx-clip-4-273-172-34-0)" text-anchor="middle" font-size="12px"><text x="89.5" y="285.5">int32 user_state = 1;</text></g></g><g><path d="M 592 156 L 592 130 L 772 130 L 772 156" fill="rgb(255, 255, 255)" stroke="rgb(0, 0, 0)" stroke-miterlimit="10" pointer-events="all"/><path d="M 592 156 L 592 190 L 772 190 L 772 156" fill="none" stroke="rgb(0, 0, 0)" stroke-miterlimit="10" pointer-events="none"/><path d="M 592 156 L 772 156" fill="none" stroke="rgb(0, 0, 0)" stroke-miterlimit="10" pointer-events="none"/></g><g><g fill="rgb(0, 0, 0)" font-family="Helvetica" font-weight="bold" text-anchor="middle" font-size="14px"><text x="681.5" y="149.5">UpdateUserAvatarArg</text></g></g><g><rect x="592" y="156" width="180" height="34" fill="#ffffff" stroke="none" pointer-events="all"/></g><g><g fill="rgb(0, 0, 0)" font-family="Helvetica" clip-path="url(#mx-clip-596-161-172-34-0)" text-anchor="middle" font-size="12px"><text x="681.5" y="173.5">string userAvatarUrl = 1;</text></g></g><g><path d="M 592 280 L 592 254 L 772 254 L 772 280" fill="rgb(255, 255, 255)" stroke="rgb(0, 0, 0)" stroke-miterlimit="10" pointer-events="all"/><path d="M 592 280 L 592 314 L 772 314 L 772 280" fill="none" stroke="rgb(0, 0, 0)" stroke-miterlimit="10" pointer-events="none"/><path d="M 592 280 L 772 280" fill="none" stroke="rgb(0, 0, 0)" stroke-miterlimit="10" pointer-events="none"/></g><g><g fill="rgb(0, 0, 0)" font-family="Helvetica" font-weight="bold" text-anchor="middle" font-size="14px"><text x="681.5" y="273.5">UpdateUserPrivacyArg</text></g></g><g><rect x="592" y="280" width="180" height="34" fill="#ffffff" stroke="none" pointer-events="all"/></g><g><g fill="rgb(0, 0, 0)" font-family="Helvetica" clip-path="url(#mx-clip-596-285-172-34-0)" text-anchor="middle" font-size="12px"><text x="681.5" y="297.5">string user_privacy_json = 1;</text></g></g><g><path d="M 352 200.06 L 482 200 L 482 12 L 442.37 12" fill="none" stroke="rgb(0, 0, 0)" stroke-miterlimit="10" pointer-events="stroke"/><path d="M 437.12 12 L 444.12 8.5 L 442.37 12 L 444.12 15.5 Z" fill="rgb(0, 0, 0)" stroke="rgb(0, 0, 0)" stroke-miterlimit="10" pointer-events="all"/></g><g><path d="M 231.98 230.02 L 202 230 L 202 145 L 186.37 145" fill="none" stroke="rgb(0, 0, 0)" stroke-miterlimit="10" pointer-events="stroke"/><path d="M 181.12 145 L 188.12 141.5 L 186.37 145 L 188.12 148.5 Z" fill="rgb(0, 0, 0)" stroke="rgb(0, 0, 0)" stroke-miterlimit="10" pointer-events="all"/></g><g><path d="M 231.98 250.03 L 184.39 250.89" fill="none" stroke="rgb(0, 0, 0)" stroke-miterlimit="10" pointer-events="stroke"/><path d="M 179.14 250.98 L 186.07 247.35 L 184.39 250.89 L 186.2 254.35 Z" fill="rgb(0, 0, 0)" stroke="rgb(0, 0, 0)" stroke-miterlimit="10" pointer-events="all"/></g><g><path d="M 512.14 239.95 L 572 240 L 572 145 L 585.63 145" fill="none" stroke="rgb(0, 0, 0)" stroke-miterlimit="10" pointer-events="stroke"/><path d="M 590.88 145 L 583.88 148.5 L 585.63 145 L 583.88 141.5 Z" fill="rgb(0, 0, 0)" stroke="rgb(0, 0, 0)" stroke-miterlimit="10" pointer-events="all"/></g><g><path d="M 522 270.05 L 585.63 269.1" fill="none" stroke="rgb(0, 0, 0)" stroke-miterlimit="10" pointer-events="stroke"/><path d="M 590.88 269.02 L 583.94 272.62 L 585.63 269.1 L 583.83 265.62 Z" fill="rgb(0, 0, 0)" stroke="rgb(0, 0, 0)" stroke-miterlimit="10" pointer-events="all"/></g></g></svg>