<?xml version="1.0" encoding="UTF-8"?>
<!DOCTYPE svg PUBLIC "-//W3C//DTD SVG 1.1//EN" "http://www.w3.org/Graphics/SVG/1.1/DTD/svg11.dtd">
<svg xmlns="http://www.w3.org/2000/svg" xmlns:xlink="http://www.w3.org/1999/xlink" version="1.1" width="332px" height="204px" viewBox="-0.5 -0.5 332 204"><defs><clipPath id="mx-clip-4-31-122-24-0"><rect x="4" y="31" width="122" height="24"/></clipPath><clipPath id="mx-clip-184-31-142-44-0"><rect x="184" y="31" width="142" height="44"/></clipPath><clipPath id="mx-clip-69-121-162-84-0"><rect x="69" y="121" width="162" height="84"/></clipPath></defs><g><g><path d="M 0 26 L 0 0 L 130 0 L 130 26" fill="rgb(255, 255, 255)" stroke="rgb(0, 0, 0)" stroke-miterlimit="10" pointer-events="all"/><path d="M 0 26 L 0 50 L 130 50 L 130 26" fill="none" stroke="rgb(0, 0, 0)" stroke-miterlimit="10" pointer-events="none"/><path d="M 0 26 L 130 26" fill="none" stroke="rgb(0, 0, 0)" stroke-miterlimit="10" pointer-events="none"/></g><g><g fill="rgb(0, 0, 0)" font-family="Helvetica" font-weight="bold" text-anchor="middle" font-size="14px"><text x="64.5" y="19.5">AcceptRequest</text></g></g><g><rect x="0" y="26" width="130" height="24" fill="#ffffff" stroke="none" pointer-events="all"/></g><g><g fill="rgb(0, 0, 0)" font-family="Helvetica" clip-path="url(#mx-clip-4-31-122-24-0)" font-size="12px"><text x="5.5" y="43.5">AcceptMsg msg = 1;</text></g></g><g><path d="M 180 26 L 180 0 L 330 0 L 330 26" fill="rgb(255, 255, 255)" stroke="rgb(0, 0, 0)" stroke-miterlimit="10" pointer-events="all"/><path d="M 180 26 L 180 70 L 330 70 L 330 26" fill="none" stroke="rgb(0, 0, 0)" stroke-miterlimit="10" pointer-events="none"/><path d="M 180 26 L 330 26" fill="none" stroke="rgb(0, 0, 0)" stroke-miterlimit="10" pointer-events="none"/></g><g><g fill="rgb(0, 0, 0)" font-family="Helvetica" font-weight="bold" text-anchor="middle" font-size="14px"><text x="254.5" y="19.5">AcceptResponse</text></g></g><g><rect x="180" y="26" width="150" height="44" fill="#ffffff" stroke="none" pointer-events="all"/></g><g><g fill="rgb(0, 0, 0)" font-family="Helvetica" clip-path="url(#mx-clip-184-31-142-44-0)" font-size="12px"><text x="185.5" y="43.5">ResponseCode code = 1;</text><text x="185.5" y="57.5">string msg = 2;</text></g></g><g><path d="M 65 116 L 65 90 L 235 90 L 235 116" fill="rgb(255, 255, 255)" stroke="rgb(0, 0, 0)" stroke-miterlimit="10" pointer-events="all"/><path d="M 65 116 L 65 200 L 235 200 L 235 116" fill="none" stroke="rgb(0, 0, 0)" stroke-miterlimit="10" pointer-events="none"/><path d="M 65 116 L 235 116" fill="none" stroke="rgb(0, 0, 0)" stroke-miterlimit="10" pointer-events="none"/></g><g><g fill="rgb(0, 0, 0)" font-family="Helvetica" font-weight="bold" text-anchor="middle" font-size="14px"><text x="149.5" y="109.5">AcceptMsg</text></g></g><g><rect x="65" y="116" width="170" height="84" fill="#ffffff" stroke="none" pointer-events="all"/></g><g><g fill="rgb(0, 0, 0)" font-family="Helvetica" clip-path="url(#mx-clip-69-121-162-84-0)" font-size="12px"><text x="70.5" y="133.5">E2eeAddress from = 1;</text><text x="70.5" y="147.5">E2eeAddress to = 2;</text><text x="70.5" y="161.5">uint32 e2ee_pack_id = 3;</text><text x="70.5" y="175.5">bytes encaps_ciphertext = 4;</text><text x="70.5" y="189.5">bytes ratchet_key = 5;</text></g></g><g><path d="M 32.5 50 L 33 104 L 57.61 103.98" fill="none" stroke="rgb(0, 0, 0)" stroke-miterlimit="10" pointer-events="stroke"/><path d="M 62.86 103.97 L 55.87 107.48 L 57.61 103.98 L 55.86 100.48 Z" fill="rgb(0, 0, 0)" stroke="rgb(0, 0, 0)" stroke-miterlimit="10" pointer-events="all"/></g></g></svg>