<?xml version="1.0" encoding="UTF-8"?>
<!DOCTYPE svg PUBLIC "-//W3C//DTD SVG 1.1//EN" "http://www.w3.org/Graphics/SVG/1.1/DTD/svg11.dtd">
<svg xmlns="http://www.w3.org/2000/svg" xmlns:xlink="http://www.w3.org/1999/xlink" version="1.1" width="592px" height="228px" viewBox="-0.5 -0.5 592 228"><defs><clipPath id="mx-clip-4-31-232-24-0"><rect x="4" y="31" width="232" height="24"/></clipPath><clipPath id="mx-clip-294-31-292-84-0"><rect x="294" y="31" width="292" height="84"/></clipPath><clipPath id="mx-clip-134-145-262-84-0"><rect x="134" y="145" width="262" height="84"/></clipPath></defs><g><g><path d="M 0 26 L 0 0 L 240 0 L 240 26" fill="rgb(255, 255, 255)" stroke="rgb(0, 0, 0)" stroke-miterlimit="10" pointer-events="all"/><path d="M 0 26 L 0 50 L 240 50 L 240 26" fill="none" stroke="rgb(0, 0, 0)" stroke-miterlimit="10" pointer-events="none"/><path d="M 0 26 L 240 26" fill="none" stroke="rgb(0, 0, 0)" stroke-miterlimit="10" pointer-events="none"/></g><g><g fill="rgb(0, 0, 0)" font-family="Helvetica" font-weight="bold" text-anchor="middle" font-size="14px"><text x="119.5" y="19.5">AddGroupMemberDeviceRequest</text></g></g><g><rect x="0" y="26" width="240" height="24" fill="#ffffff" stroke="none" pointer-events="all"/></g><g><g fill="rgb(0, 0, 0)" font-family="Helvetica" clip-path="url(#mx-clip-4-31-232-24-0)" font-size="12px"><text x="5.5" y="43.5">AddGroupMemberDeviceMsg msg = 1;</text></g></g><g><path d="M 290 26 L 290 0 L 590 0 L 590 26" fill="rgb(255, 255, 255)" stroke="rgb(0, 0, 0)" stroke-miterlimit="10" pointer-events="all"/><path d="M 290 26 L 290 110 L 590 110 L 590 26" fill="none" stroke="rgb(0, 0, 0)" stroke-miterlimit="10" pointer-events="none"/><path d="M 290 26 L 590 26" fill="none" stroke="rgb(0, 0, 0)" stroke-miterlimit="10" pointer-events="none"/></g><g><g fill="rgb(0, 0, 0)" font-family="Helvetica" font-weight="bold" text-anchor="middle" font-size="14px"><text x="439.5" y="19.5">AddGroupMemberDeviceResponse</text></g></g><g><rect x="290" y="26" width="300" height="84" fill="#ffffff" stroke="none" pointer-events="all"/></g><g><g fill="rgb(0, 0, 0)" font-family="Helvetica" clip-path="url(#mx-clip-294-31-292-84-0)" font-size="12px"><text x="295.5" y="43.5">ResponseCode code = 1;</text><text x="295.5" y="57.5">string msg = 2;</text><text x="295.5" y="85.5">repeated GroupMember group_member_list = 3;</text><text x="295.5" y="99.5">GroupMemberInfo adding_member_device_info = 4;</text></g></g><g><path d="M 130 140 L 130 114 L 400 114 L 400 140" fill="rgb(255, 255, 255)" stroke="rgb(0, 0, 0)" stroke-miterlimit="10" pointer-events="all"/><path d="M 130 140 L 130 224 L 400 224 L 400 140" fill="none" stroke="rgb(0, 0, 0)" stroke-miterlimit="10" pointer-events="none"/><path d="M 130 140 L 400 140" fill="none" stroke="rgb(0, 0, 0)" stroke-miterlimit="10" pointer-events="none"/></g><g><g fill="rgb(0, 0, 0)" font-family="Helvetica" font-weight="bold" text-anchor="middle" font-size="14px"><text x="264.5" y="133.5">AddGroupMemberDeviceMsg</text></g></g><g><rect x="130" y="140" width="270" height="84" fill="#ffffff" stroke="none" pointer-events="all"/></g><g><g fill="rgb(0, 0, 0)" font-family="Helvetica" clip-path="url(#mx-clip-134-145-262-84-0)" font-size="12px"><text x="135.5" y="157.5">uint32 e2ee_pack_id = 1;</text><text x="135.5" y="171.5">E2eeAddress sender_address = 2;</text><text x="135.5" y="185.5">uint32 sequence = 3;</text><text x="135.5" y="199.5">GroupInfo group_info = 4;</text><text x="135.5" y="213.5">GroupMemberInfo adding_member_device = 5;</text></g></g><g><path d="M 60 50 L 60 130 L 123.63 129.05" fill="none" stroke="rgb(0, 0, 0)" stroke-miterlimit="10" pointer-events="stroke"/><path d="M 128.88 128.98 L 121.93 132.58 L 123.63 129.05 L 121.83 125.58 Z" fill="rgb(0, 0, 0)" stroke="rgb(0, 0, 0)" stroke-miterlimit="10" pointer-events="all"/></g></g></svg>