<?xml version="1.0" encoding="UTF-8"?>
<!DOCTYPE svg PUBLIC "-//W3C//DTD SVG 1.1//EN" "http://www.w3.org/Graphics/SVG/1.1/DTD/svg11.dtd">
<svg xmlns="http://www.w3.org/2000/svg" xmlns:xlink="http://www.w3.org/1999/xlink" version="1.1" width="562px" height="264px" viewBox="-0.5 -0.5 562 264"><defs><clipPath id="mx-clip-4-31-202-24-0"><rect x="4" y="31" width="202" height="24"/></clipPath><clipPath id="mx-clip-234-31-322-104-0"><rect x="234" y="31" width="322" height="104"/></clipPath><clipPath id="mx-clip-124-171-322-94-0"><rect x="124" y="171" width="322" height="94"/></clipPath></defs><g><g><path d="M 0 26 L 0 0 L 210 0 L 210 26" fill="rgb(255, 255, 255)" stroke="rgb(0, 0, 0)" stroke-miterlimit="10" pointer-events="all"/><path d="M 0 26 L 0 50 L 210 50 L 210 26" fill="none" stroke="rgb(0, 0, 0)" stroke-miterlimit="10" pointer-events="none"/><path d="M 0 26 L 210 26" fill="none" stroke="rgb(0, 0, 0)" stroke-miterlimit="10" pointer-events="none"/></g><g><g fill="rgb(0, 0, 0)" font-family="Helvetica" font-weight="bold" text-anchor="middle" font-size="14px"><text x="104.5" y="19.5">AddGroupMembersRequest</text></g></g><g><rect x="0" y="26" width="210" height="24" fill="#ffffff" stroke="none" pointer-events="all"/></g><g><g fill="rgb(0, 0, 0)" font-family="Helvetica" clip-path="url(#mx-clip-4-31-202-24-0)" font-size="12px"><text x="5.5" y="43.5">AddGroupMembersMsg msg = 1;</text></g></g><g><path d="M 230 26 L 230 0 L 560 0 L 560 26" fill="rgb(255, 255, 255)" stroke="rgb(0, 0, 0)" stroke-miterlimit="10" pointer-events="all"/><path d="M 230 26 L 230 130 L 560 130 L 560 26" fill="none" stroke="rgb(0, 0, 0)" stroke-miterlimit="10" pointer-events="none"/><path d="M 230 26 L 560 26" fill="none" stroke="rgb(0, 0, 0)" stroke-miterlimit="10" pointer-events="none"/></g><g><g fill="rgb(0, 0, 0)" font-family="Helvetica" font-weight="bold" text-anchor="middle" font-size="14px"><text x="394.5" y="19.5">AddGroupMembersResponse</text></g></g><g><rect x="230" y="26" width="330" height="104" fill="#ffffff" stroke="none" pointer-events="all"/></g><g><g fill="rgb(0, 0, 0)" font-family="Helvetica" clip-path="url(#mx-clip-234-31-322-104-0)" font-size="12px"><text x="235.5" y="43.5">ResponseCode code = 1;</text><text x="235.5" y="57.5">string msg = 2;</text><text x="235.5" y="85.5">repeated GroupMember added_group_member_list = 3;</text><text x="235.5" y="99.5">repeated GroupMember group_member_list = 4;</text><text x="235.5" y="113.5">repeated GroupMemberInfo adding_member_info_list = 5;</text></g></g><g><path d="M 120 166 L 120 140 L 450 140 L 450 166" fill="rgb(255, 255, 255)" stroke="rgb(0, 0, 0)" stroke-miterlimit="10" pointer-events="all"/><path d="M 120 166 L 120 260 L 450 260 L 450 166" fill="none" stroke="rgb(0, 0, 0)" stroke-miterlimit="10" pointer-events="none"/><path d="M 120 166 L 450 166" fill="none" stroke="rgb(0, 0, 0)" stroke-miterlimit="10" pointer-events="none"/></g><g><g fill="rgb(0, 0, 0)" font-family="Helvetica" font-weight="bold" text-anchor="middle" font-size="14px"><text x="284.5" y="159.5">AddGroupMembersMsg</text></g></g><g><rect x="120" y="166" width="330" height="94" fill="#ffffff" stroke="none" pointer-events="all"/></g><g><g fill="rgb(0, 0, 0)" font-family="Helvetica" clip-path="url(#mx-clip-124-171-322-94-0)" font-size="12px"><text x="125.5" y="183.5">uint32 e2ee_pack_id = 1;</text><text x="125.5" y="197.5">E2eeAddress sender_address = 2;</text><text x="125.5" y="211.5">uint32 sequence = 3;</text><text x="125.5" y="225.5">GroupInfo group_info = 4;</text><text x="125.5" y="239.5">repeated GroupMember adding_member_list = 5;</text><text x="125.5" y="253.5">repeated GroupMemberInfo adding_member_info_list = 6;</text></g></g><g><path d="M 52.5 50 L 53 150 L 111.65 150.94" fill="none" stroke="rgb(0, 0, 0)" stroke-miterlimit="10" pointer-events="stroke"/><path d="M 116.9 151.02 L 109.85 154.41 L 111.65 150.94 L 109.96 147.41 Z" fill="rgb(0, 0, 0)" stroke="rgb(0, 0, 0)" stroke-miterlimit="10" pointer-events="all"/></g></g></svg>