<?xml version="1.0" encoding="UTF-8"?>
<!DOCTYPE svg PUBLIC "-//W3C//DTD SVG 1.1//EN" "http://www.w3.org/Graphics/SVG/1.1/DTD/svg11.dtd">
<svg xmlns="http://www.w3.org/2000/svg" xmlns:xlink="http://www.w3.org/1999/xlink" version="1.1" width="436px" height="74px" viewBox="-0.5 -0.5 436 74"><defs><clipPath id="mx-clip-4-31-192-24-0"><rect x="4" y="31" width="192" height="24"/></clipPath><clipPath id="mx-clip-229-31-202-44-0"><rect x="229" y="31" width="202" height="44"/></clipPath></defs><g><g><path d="M 0 26 L 0 0 L 200 0 L 200 26" fill="rgb(255, 255, 255)" stroke="rgb(0, 0, 0)" stroke-miterlimit="10" pointer-events="all"/><path d="M 0 26 L 0 50 L 200 50 L 200 26" fill="none" stroke="rgb(0, 0, 0)" stroke-miterlimit="10" pointer-events="none"/><path d="M 0 26 L 200 26" fill="none" stroke="rgb(0, 0, 0)" stroke-miterlimit="10" pointer-events="none"/></g><g><g fill="rgb(0, 0, 0)" font-family="Helvetica" font-weight="bold" text-anchor="middle" font-size="14px"><text x="99.5" y="19.5">ConsumeProtoMsgRequest</text></g></g><g><rect x="0" y="26" width="200" height="24" fill="#ffffff" stroke="none" pointer-events="all"/></g><g><g fill="rgb(0, 0, 0)" font-family="Helvetica" clip-path="url(#mx-clip-4-31-192-24-0)" font-size="12px"><text x="5.5" y="43.5">string proto_msg_id = 1;</text></g></g><g><path d="M 225 26 L 225 0 L 435 0 L 435 26" fill="rgb(255, 255, 255)" stroke="rgb(0, 0, 0)" stroke-miterlimit="10" pointer-events="all"/><path d="M 225 26 L 225 70 L 435 70 L 435 26" fill="none" stroke="rgb(0, 0, 0)" stroke-miterlimit="10" pointer-events="none"/><path d="M 225 26 L 435 26" fill="none" stroke="rgb(0, 0, 0)" stroke-miterlimit="10" pointer-events="none"/></g><g><g fill="rgb(0, 0, 0)" font-family="Helvetica" font-weight="bold" text-anchor="middle" font-size="14px"><text x="329.5" y="19.5">ConsumeProtoMsgResponse</text></g></g><g><rect x="225" y="26" width="210" height="44" fill="#ffffff" stroke="none" pointer-events="all"/></g><g><g fill="rgb(0, 0, 0)" font-family="Helvetica" clip-path="url(#mx-clip-229-31-202-44-0)" font-size="12px"><text x="230.5" y="43.5">ResponseCode code = 1;</text><text x="230.5" y="57.5">string msg = 2;</text></g></g></g></svg>