<?xml version="1.0" encoding="UTF-8"?>
<!DOCTYPE svg PUBLIC "-//W3C//DTD SVG 1.1//EN" "http://www.w3.org/Graphics/SVG/1.1/DTD/svg11.dtd">
<svg xmlns="http://www.w3.org/2000/svg" xmlns:xlink="http://www.w3.org/1999/xlink" version="1.1" width="491px" height="224px" viewBox="-0.5 -0.5 491 224"><defs><clipPath id="mx-clip-4-31-162-24-0"><rect x="4" y="31" width="162" height="24"/></clipPath><clipPath id="mx-clip-124-151-272-74-0"><rect x="124" y="151" width="272" height="74"/></clipPath><clipPath id="mx-clip-214-31-272-84-0"><rect x="214" y="31" width="272" height="84"/></clipPath></defs><g><g><path d="M 0 26 L 0 0 L 170 0 L 170 26" fill="rgb(255, 255, 255)" stroke="rgb(0, 0, 0)" stroke-miterlimit="10" pointer-events="all"/><path d="M 0 26 L 0 50 L 170 50 L 170 26" fill="none" stroke="rgb(0, 0, 0)" stroke-miterlimit="10" pointer-events="none"/><path d="M 0 26 L 170 26" fill="none" stroke="rgb(0, 0, 0)" stroke-miterlimit="10" pointer-events="none"/></g><g><g fill="rgb(0, 0, 0)" font-family="Helvetica" font-weight="bold" text-anchor="middle" font-size="14px"><text x="84.5" y="19.5">CreateGroupRequest</text></g></g><g><rect x="0" y="26" width="170" height="24" fill="#ffffff" stroke="none" pointer-events="all"/></g><g><g fill="rgb(0, 0, 0)" font-family="Helvetica" clip-path="url(#mx-clip-4-31-162-24-0)" font-size="12px"><text x="5.5" y="43.5">CreateGroupMsg msg = 1;</text></g></g><g><path d="M 120 146 L 120 120 L 400 120 L 400 146" fill="rgb(255, 255, 255)" stroke="rgb(0, 0, 0)" stroke-miterlimit="10" pointer-events="all"/><path d="M 120 146 L 120 220 L 400 220 L 400 146" fill="none" stroke="rgb(0, 0, 0)" stroke-miterlimit="10" pointer-events="none"/><path d="M 120 146 L 400 146" fill="none" stroke="rgb(0, 0, 0)" stroke-miterlimit="10" pointer-events="none"/></g><g><g fill="rgb(0, 0, 0)" font-family="Helvetica" font-weight="bold" text-anchor="middle" font-size="14px"><text x="259.5" y="139.5">CreateGroupMsg</text></g></g><g><rect x="120" y="146" width="280" height="74" fill="#ffffff" stroke="none" pointer-events="all"/></g><g><g fill="rgb(0, 0, 0)" font-family="Helvetica" clip-path="url(#mx-clip-124-151-272-74-0)" font-size="12px"><text x="125.5" y="163.5">uint32 e2ee_pack_id = 1;</text><text x="125.5" y="177.5">E2eeAddress sender_address = 2;</text><text x="125.5" y="191.5">GroupInfo group_info = 3;</text><text x="125.5" y="205.5">repeated GroupMemberInfo member_info_list = 4;</text></g></g><g><path d="M 210 26 L 210 0 L 490 0 L 490 26" fill="rgb(255, 255, 255)" stroke="rgb(0, 0, 0)" stroke-miterlimit="10" pointer-events="all"/><path d="M 210 26 L 210 110 L 490 110 L 490 26" fill="none" stroke="rgb(0, 0, 0)" stroke-miterlimit="10" pointer-events="none"/><path d="M 210 26 L 490 26" fill="none" stroke="rgb(0, 0, 0)" stroke-miterlimit="10" pointer-events="none"/></g><g><g fill="rgb(0, 0, 0)" font-family="Helvetica" font-weight="bold" text-anchor="middle" font-size="14px"><text x="349.5" y="19.5">CreateGroupResponse</text></g></g><g><rect x="210" y="26" width="280" height="84" fill="#ffffff" stroke="none" pointer-events="all"/></g><g><g fill="rgb(0, 0, 0)" font-family="Helvetica" clip-path="url(#mx-clip-214-31-272-84-0)" font-size="12px"><text x="215.5" y="43.5">ResponseCode code = 1;</text><text x="215.5" y="57.5">string msg = 2;</text><text x="215.5" y="85.5">E2eeAddress group_address = 3;</text><text x="215.5" y="99.5">repeated GroupMemberInfo member_info_list = 4;</text></g></g><g><path d="M 53.04 51.01 L 53 129 L 110.55 129" fill="none" stroke="rgb(0, 0, 0)" stroke-miterlimit="10" pointer-events="stroke"/><path d="M 115.8 129 L 108.8 132.5 L 110.55 129 L 108.8 125.5 Z" fill="rgb(0, 0, 0)" stroke="rgb(0, 0, 0)" stroke-miterlimit="10" pointer-events="all"/></g></g></svg>