<?xml version="1.0" encoding="UTF-8"?>
<!DOCTYPE svg PUBLIC "-//W3C//DTD SVG 1.1//EN" "http://www.w3.org/Graphics/SVG/1.1/DTD/svg11.dtd">
<svg xmlns="http://www.w3.org/2000/svg" xmlns:xlink="http://www.w3.org/1999/xlink" version="1.1" width="501px" height="114px" viewBox="-0.5 -0.5 501 114"><defs><clipPath id="mx-clip-4-31-192-54-0"><rect x="4" y="31" width="192" height="54"/></clipPath><clipPath id="mx-clip-244-31-252-84-0"><rect x="244" y="31" width="252" height="84"/></clipPath></defs><g><g><path d="M 0 26 L 0 0 L 200 0 L 200 26" fill="rgb(255, 255, 255)" stroke="rgb(0, 0, 0)" stroke-miterlimit="10" pointer-events="all"/><path d="M 0 26 L 0 80 L 200 80 L 200 26" fill="none" stroke="rgb(0, 0, 0)" stroke-miterlimit="10" pointer-events="none"/><path d="M 0 26 L 200 26" fill="none" stroke="rgb(0, 0, 0)" stroke-miterlimit="10" pointer-events="none"/></g><g><g fill="rgb(0, 0, 0)" font-family="Helvetica" font-weight="bold" text-anchor="middle" font-size="14px"><text x="99.5" y="19.5">GetPreKeyBundleRequest</text></g></g><g><rect x="0" y="26" width="200" height="54" fill="#ffffff" stroke="none" pointer-events="all"/></g><g><g fill="rgb(0, 0, 0)" font-family="Helvetica" clip-path="url(#mx-clip-4-31-192-54-0)" font-size="12px"><text x="5.5" y="43.5">string domain = 1;</text><text x="5.5" y="57.5">string user_id = 2;</text><text x="5.5" y="71.5">string device_id = 3;</text></g></g><g><path d="M 240 26 L 240 0 L 500 0 L 500 26" fill="rgb(255, 255, 255)" stroke="rgb(0, 0, 0)" stroke-miterlimit="10" pointer-events="all"/><path d="M 240 26 L 240 110 L 500 110 L 500 26" fill="none" stroke="rgb(0, 0, 0)" stroke-miterlimit="10" pointer-events="none"/><path d="M 240 26 L 500 26" fill="none" stroke="rgb(0, 0, 0)" stroke-miterlimit="10" pointer-events="none"/></g><g><g fill="rgb(0, 0, 0)" font-family="Helvetica" font-weight="bold" text-anchor="middle" font-size="14px"><text x="369.5" y="19.5">GetPreKeyBundleResponse</text></g></g><g><rect x="240" y="26" width="260" height="84" fill="#ffffff" stroke="none" pointer-events="all"/></g><g><g fill="rgb(0, 0, 0)" font-family="Helvetica" clip-path="url(#mx-clip-244-31-252-84-0)" font-size="12px"><text x="245.5" y="43.5">ResponseCode code = 1;</text><text x="245.5" y="57.5">string msg = 2;</text><text x="245.5" y="85.5">string user_id = 3;</text><text x="245.5" y="99.5">repeated PreKeyBundle pre_key_bundles = 4;</text></g></g></g></svg>