<?xml version="1.0" encoding="UTF-8"?>
<!DOCTYPE svg PUBLIC "-//W3C//DTD SVG 1.1//EN" "http://www.w3.org/Graphics/SVG/1.1/DTD/svg11.dtd">
<svg xmlns="http://www.w3.org/2000/svg" xmlns:xlink="http://www.w3.org/1999/xlink" version="1.1" width="322px" height="324px" viewBox="-0.5 -0.5 322 324"><defs><clipPath id="mx-clip-4-31-112-24-0"><rect x="4" y="31" width="112" height="24"/></clipPath><clipPath id="mx-clip-174-31-142-84-0"><rect x="174" y="31" width="142" height="84"/></clipPath><clipPath id="mx-clip-68-161-232-164-0"><rect x="68" y="161" width="232" height="164"/></clipPath></defs><g><g><path d="M 0 26 L 0 0 L 120 0 L 120 26" fill="rgb(255, 255, 255)" stroke="rgb(0, 0, 0)" stroke-miterlimit="10" pointer-events="all"/><path d="M 0 26 L 0 50 L 120 50 L 120 26" fill="none" stroke="rgb(0, 0, 0)" stroke-miterlimit="10" pointer-events="none"/><path d="M 0 26 L 120 26" fill="none" stroke="rgb(0, 0, 0)" stroke-miterlimit="10" pointer-events="none"/></g><g><g fill="rgb(0, 0, 0)" font-family="Helvetica" font-weight="bold" text-anchor="middle" font-size="14px"><text x="59.5" y="19.5">InviteRequest</text></g></g><g><rect x="0" y="26" width="120" height="24" fill="#ffffff" stroke="none" pointer-events="all"/></g><g><g fill="rgb(0, 0, 0)" font-family="Helvetica" clip-path="url(#mx-clip-4-31-112-24-0)" font-size="12px"><text x="5.5" y="43.5">InviteMsg msg = 1;</text></g></g><g><path d="M 170 26 L 170 0 L 320 0 L 320 26" fill="rgb(255, 255, 255)" stroke="rgb(0, 0, 0)" stroke-miterlimit="10" pointer-events="all"/><path d="M 170 26 L 170 110 L 320 110 L 320 26" fill="none" stroke="rgb(0, 0, 0)" stroke-miterlimit="10" pointer-events="none"/><path d="M 170 26 L 320 26" fill="none" stroke="rgb(0, 0, 0)" stroke-miterlimit="10" pointer-events="none"/></g><g><g fill="rgb(0, 0, 0)" font-family="Helvetica" font-weight="bold" text-anchor="middle" font-size="14px"><text x="244.5" y="19.5">InviteResponse</text></g></g><g><rect x="170" y="26" width="150" height="84" fill="#ffffff" stroke="none" pointer-events="all"/></g><g><g fill="rgb(0, 0, 0)" font-family="Helvetica" clip-path="url(#mx-clip-174-31-142-84-0)" font-size="12px"><text x="175.5" y="43.5">ResponseCode code = 1;</text><text x="175.5" y="57.5">string msg = 2;</text><text x="175.5" y="85.5">string session_id = 3;</text><text x="175.5" y="99.5">uint64 invite_t = 4;</text></g></g><g><path d="M 64 156 L 64 130 L 304 130 L 304 156" fill="rgb(255, 255, 255)" stroke="rgb(0, 0, 0)" stroke-miterlimit="10" pointer-events="all"/><path d="M 64 156 L 64 320 L 304 320 L 304 156" fill="none" stroke="rgb(0, 0, 0)" stroke-miterlimit="10" pointer-events="none"/><path d="M 64 156 L 304 156" fill="none" stroke="rgb(0, 0, 0)" stroke-miterlimit="10" pointer-events="none"/></g><g><g fill="rgb(0, 0, 0)" font-family="Helvetica" font-weight="bold" text-anchor="middle" font-size="14px"><text x="183.5" y="149.5">InviteMsg</text></g></g><g><rect x="64" y="156" width="240" height="164" fill="#ffffff" stroke="none" pointer-events="all"/></g><g><g fill="rgb(0, 0, 0)" font-family="Helvetica" clip-path="url(#mx-clip-68-161-232-164-0)" font-size="12px"><text x="69.5" y="173.5">string version = 1;</text><text x="69.5" y="187.5">uint32 e2ee_pack_id = 2;</text><text x="69.5" y="201.5">string session_id = 3;</text><text x="69.5" y="215.5">E2eeAddress from = 4;</text><text x="69.5" y="229.5">E2eeAddress to = 5;</text><text x="69.5" y="243.5">bytes alice_identity_key = 6;</text><text x="69.5" y="257.5">bytes alice_base_key = 7;</text><text x="69.5" y="271.5">repeated bytes pre_shared_input_list = 8;</text><text x="69.5" y="285.5">uint32 bob_signed_pre_key_id = 9;</text><text x="69.5" y="299.5">uint32 bob_one_time_pre_key_id = 10;</text><text x="69.5" y="313.5">int64 invite_t = 11;</text></g></g><g><path d="M 30 50 L 30 144 L 57.63 143.43" fill="none" stroke="rgb(0, 0, 0)" stroke-miterlimit="10" pointer-events="stroke"/><path d="M 62.88 143.32 L 55.96 146.97 L 57.63 143.43 L 55.81 139.97 Z" fill="rgb(0, 0, 0)" stroke="rgb(0, 0, 0)" stroke-miterlimit="10" pointer-events="all"/></g></g></svg>