<?xml version="1.0" encoding="UTF-8"?>
<!DOCTYPE svg PUBLIC "-//W3C//DTD SVG 1.1//EN" "http://www.w3.org/Graphics/SVG/1.1/DTD/svg11.dtd">
<svg xmlns="http://www.w3.org/2000/svg" xmlns:xlink="http://www.w3.org/1999/xlink" version="1.1" width="471px" height="194px" viewBox="-0.5 -0.5 471 194"><defs><clipPath id="mx-clip-4-31-142-24-0"><rect x="4" y="31" width="142" height="24"/></clipPath><clipPath id="mx-clip-194-31-272-84-0"><rect x="194" y="31" width="272" height="84"/></clipPath><clipPath id="mx-clip-124-151-192-44-0"><rect x="124" y="151" width="192" height="44"/></clipPath></defs><g><g><path d="M 0 26 L 0 0 L 150 0 L 150 26" fill="rgb(255, 255, 255)" stroke="rgb(0, 0, 0)" stroke-miterlimit="10" pointer-events="all"/><path d="M 0 26 L 0 50 L 150 50 L 150 26" fill="none" stroke="rgb(0, 0, 0)" stroke-miterlimit="10" pointer-events="none"/><path d="M 0 26 L 150 26" fill="none" stroke="rgb(0, 0, 0)" stroke-miterlimit="10" pointer-events="none"/></g><g><g fill="rgb(0, 0, 0)" font-family="Helvetica" font-weight="bold" text-anchor="middle" font-size="14px"><text x="74.5" y="19.5">LeaveGroupRequest</text></g></g><g><rect x="0" y="26" width="150" height="24" fill="#ffffff" stroke="none" pointer-events="all"/></g><g><g fill="rgb(0, 0, 0)" font-family="Helvetica" clip-path="url(#mx-clip-4-31-142-24-0)" font-size="12px"><text x="5.5" y="43.5">LeaveGroupMsg msg = 1;</text></g></g><g><path d="M 190 26 L 190 0 L 470 0 L 470 26" fill="rgb(255, 255, 255)" stroke="rgb(0, 0, 0)" stroke-miterlimit="10" pointer-events="all"/><path d="M 190 26 L 190 110 L 470 110 L 470 26" fill="none" stroke="rgb(0, 0, 0)" stroke-miterlimit="10" pointer-events="none"/><path d="M 190 26 L 470 26" fill="none" stroke="rgb(0, 0, 0)" stroke-miterlimit="10" pointer-events="none"/></g><g><g fill="rgb(0, 0, 0)" font-family="Helvetica" font-weight="bold" text-anchor="middle" font-size="14px"><text x="329.5" y="19.5">LeaveGroupResponse</text></g></g><g><rect x="190" y="26" width="280" height="84" fill="#ffffff" stroke="none" pointer-events="all"/></g><g><g fill="rgb(0, 0, 0)" font-family="Helvetica" clip-path="url(#mx-clip-194-31-272-84-0)" font-size="12px"><text x="195.5" y="43.5">ResponseCode code = 1;</text><text x="195.5" y="57.5">string msg = 2;</text><text x="195.5" y="85.5">E2eeAddress leave_group_member_address = 3;</text><text x="195.5" y="99.5">E2eeAddress group_address = 4;</text></g></g><g><path d="M 120 146 L 120 120 L 320 120 L 320 146" fill="rgb(255, 255, 255)" stroke="rgb(0, 0, 0)" stroke-miterlimit="10" pointer-events="all"/><path d="M 120 146 L 120 190 L 320 190 L 320 146" fill="none" stroke="rgb(0, 0, 0)" stroke-miterlimit="10" pointer-events="none"/><path d="M 120 146 L 320 146" fill="none" stroke="rgb(0, 0, 0)" stroke-miterlimit="10" pointer-events="none"/></g><g><g fill="rgb(0, 0, 0)" font-family="Helvetica" font-weight="bold" text-anchor="middle" font-size="14px"><text x="219.5" y="139.5">LeaveGroupMsg</text></g></g><g><rect x="120" y="146" width="200" height="44" fill="#ffffff" stroke="none" pointer-events="all"/></g><g><g fill="rgb(0, 0, 0)" font-family="Helvetica" clip-path="url(#mx-clip-124-151-192-44-0)" font-size="12px"><text x="125.5" y="163.5">E2eeAddress user_address = 1;</text><text x="125.5" y="177.5">E2eeAddress group_address = 2;</text></g></g><g><path d="M 37.5 50 L 38 132 L 112.63 131.97" fill="none" stroke="rgb(0, 0, 0)" stroke-miterlimit="10" pointer-events="stroke"/><path d="M 117.88 131.97 L 110.88 135.47 L 112.63 131.97 L 110.88 128.47 Z" fill="rgb(0, 0, 0)" stroke="rgb(0, 0, 0)" stroke-miterlimit="10" pointer-events="all"/></g></g></svg>