<?xml version="1.0" encoding="UTF-8"?>
<!DOCTYPE svg PUBLIC "-//W3C//DTD SVG 1.1//EN" "http://www.w3.org/Graphics/SVG/1.1/DTD/svg11.dtd">
<svg xmlns="http://www.w3.org/2000/svg" xmlns:xlink="http://www.w3.org/1999/xlink" version="1.1" width="462px" height="184px" viewBox="-0.5 -0.5 462 184"><defs><clipPath id="mx-clip-4-31-262-44-0"><rect x="4" y="31" width="262" height="44"/></clipPath><clipPath id="mx-clip-304-31-152-44-0"><rect x="304" y="31" width="152" height="44"/></clipPath><clipPath id="mx-clip-158-131-152-54-0"><rect x="158" y="131" width="152" height="54"/></clipPath></defs><g><g><path d="M 0 26 L 0 0 L 270 0 L 270 26" fill="rgb(255, 255, 255)" stroke="rgb(0, 0, 0)" stroke-miterlimit="10" pointer-events="all"/><path d="M 0 26 L 0 70 L 270 70 L 270 26" fill="none" stroke="rgb(0, 0, 0)" stroke-miterlimit="10" pointer-events="none"/><path d="M 0 26 L 270 26" fill="none" stroke="rgb(0, 0, 0)" stroke-miterlimit="10" pointer-events="none"/></g><g><g fill="rgb(0, 0, 0)" font-family="Helvetica" font-weight="bold" text-anchor="middle" font-size="14px"><text x="134.5" y="19.5">PublishSpkRequest</text></g></g><g><rect x="0" y="26" width="270" height="44" fill="#ffffff" stroke="none" pointer-events="all"/></g><g><g fill="rgb(0, 0, 0)" font-family="Helvetica" clip-path="url(#mx-clip-4-31-262-44-0)" font-size="12px"><text x="5.5" y="43.5">E2eeAddress user_address = 1;</text><text x="5.5" y="57.5">SignedPreKeyPublic signed_pre_key_public = 2;</text></g></g><g><path d="M 300 26 L 300 0 L 460 0 L 460 26" fill="rgb(255, 255, 255)" stroke="rgb(0, 0, 0)" stroke-miterlimit="10" pointer-events="all"/><path d="M 300 26 L 300 70 L 460 70 L 460 26" fill="none" stroke="rgb(0, 0, 0)" stroke-miterlimit="10" pointer-events="none"/><path d="M 300 26 L 460 26" fill="none" stroke="rgb(0, 0, 0)" stroke-miterlimit="10" pointer-events="none"/></g><g><g fill="rgb(0, 0, 0)" font-family="Helvetica" font-weight="bold" text-anchor="middle" font-size="14px"><text x="379.5" y="19.5">PublishSpkResponse</text></g></g><g><rect x="300" y="26" width="160" height="44" fill="#ffffff" stroke="none" pointer-events="all"/></g><g><g fill="rgb(0, 0, 0)" font-family="Helvetica" clip-path="url(#mx-clip-304-31-152-44-0)" font-size="12px"><text x="305.5" y="43.5">ResponseCode code = 1;</text><text x="305.5" y="57.5">string msg = 2;</text></g></g><g><path d="M 154 126 L 154 100 L 314 100 L 314 126" fill="rgb(255, 255, 255)" stroke="rgb(0, 0, 0)" stroke-miterlimit="10" pointer-events="all"/><path d="M 154 126 L 154 180 L 314 180 L 314 126" fill="none" stroke="rgb(0, 0, 0)" stroke-miterlimit="10" pointer-events="none"/><path d="M 154 126 L 314 126" fill="none" stroke="rgb(0, 0, 0)" stroke-miterlimit="10" pointer-events="none"/></g><g><g fill="rgb(0, 0, 0)" font-family="Helvetica" font-weight="bold" text-anchor="middle" font-size="14px"><text x="233.5" y="119.5">SignedPreKeyPublic</text></g></g><g><rect x="154" y="126" width="160" height="54" fill="#ffffff" stroke="none" pointer-events="all"/></g><g><g fill="rgb(0, 0, 0)" font-family="Helvetica" clip-path="url(#mx-clip-158-131-152-54-0)" font-size="12px"><text x="159.5" y="143.5">uint32 spk_id = 1;</text><text x="159.5" y="157.5">bytes public_key = 2;</text><text x="159.5" y="171.5">bytes signature = 3;</text></g></g><g><path d="M 67.5 70 L 68 112 L 149.71 112" fill="none" stroke="rgb(0, 0, 0)" stroke-miterlimit="10" pointer-events="stroke"/><path d="M 154.96 112 L 147.96 115.5 L 149.71 112 L 147.96 108.5 Z" fill="rgb(0, 0, 0)" stroke="rgb(0, 0, 0)" stroke-miterlimit="10" pointer-events="all"/></g></g></svg>