<?xml version="1.0" encoding="UTF-8"?>
<!DOCTYPE svg PUBLIC "-//W3C//DTD SVG 1.1//EN" "http://www.w3.org/Graphics/SVG/1.1/DTD/svg11.dtd">
<svg xmlns="http://www.w3.org/2000/svg" xmlns:xlink="http://www.w3.org/1999/xlink" version="1.1" width="661px" height="224px" viewBox="-0.5 -0.5 661 224"><defs><clipPath id="mx-clip-4-31-322-154-0"><rect x="4" y="31" width="322" height="154"/></clipPath><clipPath id="mx-clip-364-31-292-194-0"><rect x="364" y="31" width="292" height="194"/></clipPath></defs><g><g><path d="M 0 26 L 0 0 L 330 0 L 330 26" fill="rgb(255, 255, 255)" stroke="rgb(0, 0, 0)" stroke-miterlimit="10" pointer-events="all"/><path d="M 0 26 L 0 180 L 330 180 L 330 26" fill="none" stroke="rgb(0, 0, 0)" stroke-miterlimit="10" pointer-events="none"/><path d="M 0 26 L 330 26" fill="none" stroke="rgb(0, 0, 0)" stroke-miterlimit="10" pointer-events="none"/></g><g><g fill="rgb(0, 0, 0)" font-family="Helvetica" font-weight="bold" text-anchor="middle" font-size="14px"><text x="164.5" y="19.5">RegisterUserRequest</text></g></g><g><rect x="0" y="26" width="330" height="154" fill="#ffffff" stroke="none" pointer-events="all"/></g><g><g fill="rgb(0, 0, 0)" font-family="Helvetica" clip-path="url(#mx-clip-4-31-322-154-0)" font-size="12px"><text x="5.5" y="43.5">string user_name = 1;</text><text x="5.5" y="57.5">string user_id = 2;</text><text x="5.5" y="71.5">string device_id = 3;</text><text x="5.5" y="85.5">string authenticator = 4;</text><text x="5.5" y="99.5">string auth_code = 5;</text><text x="5.5" y="127.5">uint32 e2ee_pack_id = 11;</text><text x="5.5" y="141.5">IdentityKeyPublic identity_key_public = 12;</text><text x="5.5" y="155.5">SignedPreKeyPublic signed_pre_key_public = 13;</text><text x="5.5" y="169.5">repeated OneTimePreKeyPublic one_time_pre_keys = 14;</text></g></g><g><path d="M 360 26 L 360 0 L 660 0 L 660 26" fill="rgb(255, 255, 255)" stroke="rgb(0, 0, 0)" stroke-miterlimit="10" pointer-events="all"/><path d="M 360 26 L 360 220 L 660 220 L 660 26" fill="none" stroke="rgb(0, 0, 0)" stroke-miterlimit="10" pointer-events="none"/><path d="M 360 26 L 660 26" fill="none" stroke="rgb(0, 0, 0)" stroke-miterlimit="10" pointer-events="none"/></g><g><g fill="rgb(0, 0, 0)" font-family="Helvetica" font-weight="bold" text-anchor="middle" font-size="14px"><text x="509.5" y="19.5">RegisterUserResponse</text></g></g><g><rect x="360" y="26" width="300" height="194" fill="#ffffff" stroke="none" pointer-events="all"/></g><g><g fill="rgb(0, 0, 0)" font-family="Helvetica" clip-path="url(#mx-clip-364-31-292-194-0)" font-size="12px"><text x="365.5" y="43.5">ResponseCode code = 1;</text><text x="365.5" y="57.5">string msg = 2;</text><text x="365.5" y="85.5">E2eeAddress address = 3;</text><text x="365.5" y="99.5">string username = 4;</text><text x="365.5" y="113.5">string password = 5;</text><text x="365.5" y="127.5">string auth = 6;</text><text x="365.5" y="141.5">int64 expires_in = 7;</text><text x="365.5" y="155.5">string authenticator = 8;</text><text x="365.5" y="183.5">repeated E2eeAddress other_device_addresses = 11;</text><text x="365.5" y="197.5">repeated E2eeAddress other_user_addresses = 12;</text><text x="365.5" y="211.5">repeated GroupInfo group_info_list = 13;</text></g></g></g></svg>