<?xml version="1.0" encoding="UTF-8"?>
<!DOCTYPE svg PUBLIC "-//W3C//DTD SVG 1.1//EN" "http://www.w3.org/Graphics/SVG/1.1/DTD/svg11.dtd">
<svg xmlns="http://www.w3.org/2000/svg" xmlns:xlink="http://www.w3.org/1999/xlink" version="1.1" width="551px" height="236px" viewBox="-0.5 -0.5 551 236"><defs><clipPath id="mx-clip-4-31-232-24-0"><rect x="4" y="31" width="232" height="24"/></clipPath><clipPath id="mx-clip-274-31-272-84-0"><rect x="274" y="31" width="272" height="84"/></clipPath><clipPath id="mx-clip-144-153-272-84-0"><rect x="144" y="153" width="272" height="84"/></clipPath></defs><g><g><path d="M 0 26 L 0 0 L 240 0 L 240 26" fill="rgb(255, 255, 255)" stroke="rgb(0, 0, 0)" stroke-miterlimit="10" pointer-events="all"/><path d="M 0 26 L 0 50 L 240 50 L 240 26" fill="none" stroke="rgb(0, 0, 0)" stroke-miterlimit="10" pointer-events="none"/><path d="M 0 26 L 240 26" fill="none" stroke="rgb(0, 0, 0)" stroke-miterlimit="10" pointer-events="none"/></g><g><g fill="rgb(0, 0, 0)" font-family="Helvetica" font-weight="bold" text-anchor="middle" font-size="14px"><text x="119.5" y="19.5">RemoveGroupMembersRequest</text></g></g><g><rect x="0" y="26" width="240" height="24" fill="#ffffff" stroke="none" pointer-events="all"/></g><g><g fill="rgb(0, 0, 0)" font-family="Helvetica" clip-path="url(#mx-clip-4-31-232-24-0)" font-size="12px"><text x="5.5" y="43.5">RemoveGroupMembersMsg msg = 1;</text></g></g><g><path d="M 270 26 L 270 0 L 550 0 L 550 26" fill="rgb(255, 255, 255)" stroke="rgb(0, 0, 0)" stroke-miterlimit="10" pointer-events="all"/><path d="M 270 26 L 270 110 L 550 110 L 550 26" fill="none" stroke="rgb(0, 0, 0)" stroke-miterlimit="10" pointer-events="none"/><path d="M 270 26 L 550 26" fill="none" stroke="rgb(0, 0, 0)" stroke-miterlimit="10" pointer-events="none"/></g><g><g fill="rgb(0, 0, 0)" font-family="Helvetica" font-weight="bold" text-anchor="middle" font-size="14px"><text x="409.5" y="19.5">RemoveGroupMembersResponse</text></g></g><g><rect x="270" y="26" width="280" height="84" fill="#ffffff" stroke="none" pointer-events="all"/></g><g><g fill="rgb(0, 0, 0)" font-family="Helvetica" clip-path="url(#mx-clip-274-31-272-84-0)" font-size="12px"><text x="275.5" y="43.5">ResponseCode code = 1;</text><text x="275.5" y="57.5">string msg = 2;</text><text x="275.5" y="85.5">repeated GroupMember group_members = 3;</text><text x="275.5" y="99.5">repeated GroupMemberInfo member_info_list = 4;</text></g></g><g><path d="M 140 148 L 140 122 L 420 122 L 420 148" fill="rgb(255, 255, 255)" stroke="rgb(0, 0, 0)" stroke-miterlimit="10" pointer-events="all"/><path d="M 140 148 L 140 232 L 420 232 L 420 148" fill="none" stroke="rgb(0, 0, 0)" stroke-miterlimit="10" pointer-events="none"/><path d="M 140 148 L 420 148" fill="none" stroke="rgb(0, 0, 0)" stroke-miterlimit="10" pointer-events="none"/></g><g><g fill="rgb(0, 0, 0)" font-family="Helvetica" font-weight="bold" text-anchor="middle" font-size="14px"><text x="279.5" y="141.5">RemoveGroupMembersMsg</text></g></g><g><rect x="140" y="148" width="280" height="84" fill="#ffffff" stroke="none" pointer-events="all"/></g><g><g fill="rgb(0, 0, 0)" font-family="Helvetica" clip-path="url(#mx-clip-144-153-272-84-0)" font-size="12px"><text x="145.5" y="165.5">uint32 e2ee_pack_id = 1;</text><text x="145.5" y="179.5">E2eeAddress sender_address = 2;</text><text x="145.5" y="193.5">GroupInfo group_info = 3;</text><text x="145.5" y="207.5">repeated GroupMember removing_members = 4;</text><text x="145.5" y="221.5">repeated GroupMemberInfo member_info_list = 5;</text></g></g><g><path d="M 58.08 48.01 L 58 134 L 131.67 133.99" fill="none" stroke="rgb(0, 0, 0)" stroke-miterlimit="10" pointer-events="stroke"/><path d="M 136.92 133.99 L 129.92 137.49 L 131.67 133.99 L 129.92 130.49 Z" fill="rgb(0, 0, 0)" stroke="rgb(0, 0, 0)" stroke-miterlimit="10" pointer-events="all"/></g></g></svg>