<?xml version="1.0" encoding="UTF-8"?>
<!DOCTYPE svg PUBLIC "-//W3C//DTD SVG 1.1//EN" "http://www.w3.org/Graphics/SVG/1.1/DTD/svg11.dtd">
<svg xmlns="http://www.w3.org/2000/svg" xmlns:xlink="http://www.w3.org/1999/xlink" version="1.1" width="342px" height="252px" viewBox="-0.5 -0.5 342 252"><defs><clipPath id="mx-clip-4-26-332-224-0"><rect x="4" y="26" width="332" height="224"/></clipPath></defs><g><g><path d="M 0 26 L 0 0 L 340 0 L 340 26" fill="rgb(255, 255, 255)" stroke="rgb(0, 0, 0)" stroke-miterlimit="10" pointer-events="all"/><path d="M 0 26 L 0 250 L 340 250 L 340 26" fill="none" stroke="rgb(0, 0, 0)" stroke-miterlimit="10" pointer-events="none"/><path d="M 0 26 L 340 26" fill="none" stroke="rgb(0, 0, 0)" stroke-miterlimit="10" pointer-events="none"/></g><g><g fill="rgb(0, 0, 0)" font-family="Helvetica" font-weight="bold" text-anchor="middle" font-size="14px"><text x="169.5" y="19.5">ResponseCode</text></g></g><g><rect x="0" y="26" width="340" height="224" fill="#ffffff" stroke="none" pointer-events="all"/></g><g><g fill="rgb(0, 0, 0)" font-family="Helvetica" clip-path="url(#mx-clip-4-26-332-224-0)" font-size="12px"><text x="5.5" y="51.5">RESPONSE_CODE_UNKNOWN = 0;</text><text x="5.5" y="65.5">RESPONSE_CODE_OK = 200;</text><text x="5.5" y="79.5">RESPONSE_CODE_CREATED = 201;</text><text x="5.5" y="93.5">RESPONSE_CODE_ACCEPTED = 202;</text><text x="5.5" y="107.5">RESPONSE_CODE_NO_CONTENT = 204;</text><text x="5.5" y="121.5">RESPONSE_CODE_BAD_REQUEST = 400;</text><text x="5.5" y="135.5">RESPONSE_CODE_UNAUTHORIZED = 401;</text><text x="5.5" y="149.5">RESPONSE_CODE_FORBIDDEN = 403;</text><text x="5.5" y="163.5">RESPONSE_CODE_NOT_FOUND = 404;</text><text x="5.5" y="177.5">RESPONSE_CODE_REQUEST_TIMEOUT = 408;</text><text x="5.5" y="191.5">RESPONSE_CODE_REQUEST_CONFLICIT = 409;</text><text x="5.5" y="205.5">RESPONSE_CODE_EXPECTATION_FAILED = 417;</text><text x="5.5" y="219.5">RESPONSE_CODE_INTERNAL_SERVER_ERROR = 500;</text><text x="5.5" y="233.5">RESPONSE_CODE_SERVICE_UNAVAILABLE = 503;</text></g></g></g></svg>