<?xml version="1.0" encoding="UTF-8"?>
<!DOCTYPE svg PUBLIC "-//W3C//DTD SVG 1.1//EN" "http://www.w3.org/Graphics/SVG/1.1/DTD/svg11.dtd">
<svg xmlns="http://www.w3.org/2000/svg" xmlns:xlink="http://www.w3.org/1999/xlink" version="1.1" width="438px" height="284px" viewBox="-0.5 -0.5 438 284"><defs><clipPath id="mx-clip-31-31-202-54-0"><rect x="31" y="31" width="202" height="54"/></clipPath><clipPath id="mx-clip-261-31-172-44-0"><rect x="261" y="31" width="172" height="44"/></clipPath><clipPath id="mx-clip-111-131-232-154-0"><rect x="111" y="131" width="232" height="154"/></clipPath></defs><g><g><path d="M 27 26 L 27 0 L 237 0 L 237 26" fill="rgb(255, 255, 255)" stroke="rgb(0, 0, 0)" stroke-miterlimit="10" pointer-events="all"/><path d="M 27 26 L 27 80 L 237 80 L 237 26" fill="none" stroke="rgb(0, 0, 0)" stroke-miterlimit="10" pointer-events="none"/><path d="M 27 26 L 237 26" fill="none" stroke="rgb(0, 0, 0)" stroke-miterlimit="10" pointer-events="none"/></g><g><g fill="rgb(0, 0, 0)" font-family="Helvetica" font-weight="bold" text-anchor="middle" font-size="14px"><text x="131.5" y="19.5">SendGroupMsgRequest</text></g></g><g><rect x="27" y="26" width="210" height="54" fill="#ffffff" stroke="none" pointer-events="all"/></g><g><g fill="rgb(0, 0, 0)" font-family="Helvetica" clip-path="url(#mx-clip-31-31-202-54-0)" font-size="12px"><text x="32.5" y="43.5">E2eeMsg msg = 1;</text><text x="32.5" y="57.5">repeated E2eeAddress allow_list = 2;</text><text x="32.5" y="71.5">repeated E2eeAddress deny_list = 3;</text></g></g><g><path d="M 257 26 L 257 0 L 437 0 L 437 26" fill="rgb(255, 255, 255)" stroke="rgb(0, 0, 0)" stroke-miterlimit="10" pointer-events="all"/><path d="M 257 26 L 257 70 L 437 70 L 437 26" fill="none" stroke="rgb(0, 0, 0)" stroke-miterlimit="10" pointer-events="none"/><path d="M 257 26 L 437 26" fill="none" stroke="rgb(0, 0, 0)" stroke-miterlimit="10" pointer-events="none"/></g><g><g fill="rgb(0, 0, 0)" font-family="Helvetica" font-weight="bold" text-anchor="middle" font-size="14px"><text x="346.5" y="19.5">SendGroupMsgResponse</text></g></g><g><rect x="257" y="26" width="180" height="44" fill="#ffffff" stroke="none" pointer-events="all"/></g><g><g fill="rgb(0, 0, 0)" font-family="Helvetica" clip-path="url(#mx-clip-261-31-172-44-0)" font-size="12px"><text x="262.5" y="43.5">  ResponseCode code = 1;</text><text x="262.5" y="57.5">  string msg = 2;</text></g></g><g><path d="M 107 126 L 107 100 L 347 100 L 347 126" fill="rgb(255, 255, 255)" stroke="rgb(0, 0, 0)" stroke-miterlimit="10" pointer-events="all"/><path d="M 107 126 L 107 280 L 347 280 L 347 126" fill="none" stroke="rgb(0, 0, 0)" stroke-miterlimit="10" pointer-events="none"/><path d="M 107 126 L 347 126" fill="none" stroke="rgb(0, 0, 0)" stroke-miterlimit="10" pointer-events="none"/></g><g><g fill="rgb(0, 0, 0)" font-family="Helvetica" font-weight="bold" text-anchor="middle" font-size="14px"><text x="226.5" y="119.5">E2eeMsg</text></g></g><g><rect x="107" y="126" width="240" height="154" fill="#ffffff" stroke="none" pointer-events="all"/></g><g><g fill="rgb(0, 0, 0)" font-family="Helvetica" clip-path="url(#mx-clip-111-131-232-154-0)" font-size="12px"><text x="112.5" y="143.5">string version = 1;</text><text x="112.5" y="157.5">E2eeAddress from = 2;</text><text x="112.5" y="171.5">E2eeAddress to = 3;</text><text x="112.5" y="185.5">string msg_id = 4;</text><text x="112.5" y="199.5">string session_id = 5;</text><text x="112.5" y="213.5">NotifLevel notif_level = 6;</text><text x="112.5" y="227.5">oneof payload {</text><text x="112.5" y="241.5">  One2oneMsgPayload one2one_msg = 11;</text><text x="112.5" y="255.5">  GroupMsgPayload group_msg = 12;</text><text x="112.5" y="269.5">};</text></g></g><g><path d="M 24.06 37.99 L 7 38 L 7 117 L 99.67 116.93" fill="none" stroke="rgb(0, 0, 0)" stroke-miterlimit="10" pointer-events="stroke"/><path d="M 104.92 116.92 L 97.92 120.43 L 99.67 116.93 L 97.92 113.43 Z" fill="rgb(0, 0, 0)" stroke="rgb(0, 0, 0)" stroke-miterlimit="10" pointer-events="all"/></g></g></svg>