<?xml version="1.0" encoding="UTF-8"?>
<!DOCTYPE svg PUBLIC "-//W3C//DTD SVG 1.1//EN" "http://www.w3.org/Graphics/SVG/1.1/DTD/svg11.dtd">
<svg xmlns="http://www.w3.org/2000/svg" xmlns:xlink="http://www.w3.org/1999/xlink" version="1.1" width="550px" height="196px" viewBox="-0.5 -0.5 550 196"><defs><clipPath id="mx-clip-4-31-362-54-0"><rect x="4" y="31" width="362" height="54"/></clipPath><clipPath id="mx-clip-383-31-162-44-0"><rect x="383" y="31" width="162" height="44"/></clipPath><clipPath id="mx-clip-233-153-162-44-0"><rect x="233" y="153" width="162" height="44"/></clipPath></defs><g><g><path d="M 0 26 L 0 0 L 370 0 L 370 26" fill="rgb(255, 255, 255)" stroke="rgb(0, 0, 0)" stroke-miterlimit="10" pointer-events="all"/><path d="M 0 26 L 0 80 L 370 80 L 370 26" fill="none" stroke="rgb(0, 0, 0)" stroke-miterlimit="10" pointer-events="none"/><path d="M 0 26 L 370 26" fill="none" stroke="rgb(0, 0, 0)" stroke-miterlimit="10" pointer-events="none"/></g><g><g fill="rgb(0, 0, 0)" font-family="Helvetica" font-weight="bold" text-anchor="middle" font-size="14px"><text x="184.5" y="19.5">SupplyOpksRequest</text></g></g><g><rect x="0" y="26" width="370" height="54" fill="#ffffff" stroke="none" pointer-events="all"/></g><g><g fill="rgb(0, 0, 0)" font-family="Helvetica" clip-path="url(#mx-clip-4-31-362-54-0)" font-size="12px"><text x="5.5" y="43.5">uint32 e2ee_pack_id = 1;</text><text x="5.5" y="57.5">E2eeAddress user_address = 2;</text><text x="5.5" y="71.5">repeated OneTimePreKeyPublic one_time_pre_key_public_list = 3;</text></g></g><g><path d="M 379 26 L 379 0 L 549 0 L 549 26" fill="rgb(255, 255, 255)" stroke="rgb(0, 0, 0)" stroke-miterlimit="10" pointer-events="all"/><path d="M 379 26 L 379 70 L 549 70 L 549 26" fill="none" stroke="rgb(0, 0, 0)" stroke-miterlimit="10" pointer-events="none"/><path d="M 379 26 L 549 26" fill="none" stroke="rgb(0, 0, 0)" stroke-miterlimit="10" pointer-events="none"/></g><g><g fill="rgb(0, 0, 0)" font-family="Helvetica" font-weight="bold" text-anchor="middle" font-size="14px"><text x="463.5" y="19.5">SupplyOpksResponse</text></g></g><g><rect x="379" y="26" width="170" height="44" fill="#ffffff" stroke="none" pointer-events="all"/></g><g><g fill="rgb(0, 0, 0)" font-family="Helvetica" clip-path="url(#mx-clip-383-31-162-44-0)" font-size="12px"><text x="384.5" y="43.5">ResponseCode code = 1;</text><text x="384.5" y="57.5">string msg = 2;</text></g></g><g><path d="M 229 148 L 229 122 L 399 122 L 399 148" fill="rgb(255, 255, 255)" stroke="rgb(0, 0, 0)" stroke-miterlimit="10" pointer-events="all"/><path d="M 229 148 L 229 192 L 399 192 L 399 148" fill="none" stroke="rgb(0, 0, 0)" stroke-miterlimit="10" pointer-events="none"/><path d="M 229 148 L 399 148" fill="none" stroke="rgb(0, 0, 0)" stroke-miterlimit="10" pointer-events="none"/></g><g><g fill="rgb(0, 0, 0)" font-family="Helvetica" font-weight="bold" text-anchor="middle" font-size="14px"><text x="313.5" y="141.5">OneTimePreKeyPublic</text></g></g><g><rect x="229" y="148" width="170" height="44" fill="#ffffff" stroke="none" pointer-events="all"/></g><g><g fill="rgb(0, 0, 0)" font-family="Helvetica" clip-path="url(#mx-clip-233-153-162-44-0)" font-size="12px"><text x="234.5" y="165.5">uint32 spk_id = 1;</text><text x="234.5" y="179.5">bytes public_key = 2;</text></g></g><g><path d="M 137.27 80 L 137 140 L 222.63 139.53" fill="none" stroke="rgb(0, 0, 0)" stroke-miterlimit="10" pointer-events="stroke"/><path d="M 227.88 139.51 L 220.9 143.04 L 222.63 139.53 L 220.86 136.04 Z" fill="rgb(0, 0, 0)" stroke="rgb(0, 0, 0)" stroke-miterlimit="10" pointer-events="all"/></g></g></svg>