<?xml version="1.0" encoding="UTF-8"?>
<!DOCTYPE svg PUBLIC "-//W3C//DTD SVG 1.1//EN" "http://www.w3.org/Graphics/SVG/1.1/DTD/svg11.dtd">
<svg xmlns="http://www.w3.org/2000/svg" xmlns:xlink="http://www.w3.org/1999/xlink" version="1.1" width="531px" height="196px" viewBox="-0.5 -0.5 531 196"><defs><clipPath id="mx-clip-4-31-342-54-0"><rect x="4" y="31" width="342" height="54"/></clipPath><clipPath id="mx-clip-364-31-162-44-0"><rect x="364" y="31" width="162" height="44"/></clipPath><clipPath id="mx-clip-214-153-162-44-0"><rect x="214" y="153" width="162" height="44"/></clipPath></defs><g><g><path d="M 0 26 L 0 0 L 350 0 L 350 26" fill="rgb(255, 255, 255)" stroke="rgb(0, 0, 0)" stroke-miterlimit="10" pointer-events="all"/><path d="M 0 26 L 0 80 L 350 80 L 350 26" fill="none" stroke="rgb(0, 0, 0)" stroke-miterlimit="10" pointer-events="none"/><path d="M 0 26 L 350 26" fill="none" stroke="rgb(0, 0, 0)" stroke-miterlimit="10" pointer-events="none"/></g><g><g fill="rgb(0, 0, 0)" font-family="Helvetica" font-weight="bold" text-anchor="middle" font-size="14px"><text x="174.5" y="19.5">SupplyOpksRequest</text></g></g><g><rect x="0" y="26" width="350" height="54" fill="#ffffff" stroke="none" pointer-events="all"/></g><g><g fill="rgb(0, 0, 0)" font-family="Helvetica" clip-path="url(#mx-clip-4-31-342-54-0)" font-size="12px"><text x="5.5" y="43.5">uint32 e2ee_pack_id = 1;</text><text x="5.5" y="57.5">E2eeAddress user_address = 2;</text><text x="5.5" y="71.5">repeated OneTimePreKeyPublic one_time_pre_key_public = 3;</text></g></g><g><path d="M 360 26 L 360 0 L 530 0 L 530 26" fill="rgb(255, 255, 255)" stroke="rgb(0, 0, 0)" stroke-miterlimit="10" pointer-events="all"/><path d="M 360 26 L 360 70 L 530 70 L 530 26" fill="none" stroke="rgb(0, 0, 0)" stroke-miterlimit="10" pointer-events="none"/><path d="M 360 26 L 530 26" fill="none" stroke="rgb(0, 0, 0)" stroke-miterlimit="10" pointer-events="none"/></g><g><g fill="rgb(0, 0, 0)" font-family="Helvetica" font-weight="bold" text-anchor="middle" font-size="14px"><text x="444.5" y="19.5">SupplyOpksResponse</text></g></g><g><rect x="360" y="26" width="170" height="44" fill="#ffffff" stroke="none" pointer-events="all"/></g><g><g fill="rgb(0, 0, 0)" font-family="Helvetica" clip-path="url(#mx-clip-364-31-162-44-0)" font-size="12px"><text x="365.5" y="43.5">ResponseCode code = 1;</text><text x="365.5" y="57.5">string msg = 2;</text></g></g><g><path d="M 210 148 L 210 122 L 380 122 L 380 148" fill="rgb(255, 255, 255)" stroke="rgb(0, 0, 0)" stroke-miterlimit="10" pointer-events="all"/><path d="M 210 148 L 210 192 L 380 192 L 380 148" fill="none" stroke="rgb(0, 0, 0)" stroke-miterlimit="10" pointer-events="none"/><path d="M 210 148 L 380 148" fill="none" stroke="rgb(0, 0, 0)" stroke-miterlimit="10" pointer-events="none"/></g><g><g fill="rgb(0, 0, 0)" font-family="Helvetica" font-weight="bold" text-anchor="middle" font-size="14px"><text x="294.5" y="141.5">OneTimePreKeyPublic</text></g></g><g><rect x="210" y="148" width="170" height="44" fill="#ffffff" stroke="none" pointer-events="all"/></g><g><g fill="rgb(0, 0, 0)" font-family="Helvetica" clip-path="url(#mx-clip-214-153-162-44-0)" font-size="12px"><text x="215.5" y="165.5">uint32 spk_id = 1;</text><text x="215.5" y="179.5">bytes public_key = 2;</text></g></g><g><path d="M 129.85 80 L 130 140 L 203.63 139.54" fill="none" stroke="rgb(0, 0, 0)" stroke-miterlimit="10" pointer-events="stroke"/><path d="M 208.88 139.51 L 201.9 143.05 L 203.63 139.54 L 201.86 136.05 Z" fill="rgb(0, 0, 0)" stroke="rgb(0, 0, 0)" stroke-miterlimit="10" pointer-events="all"/></g></g></svg>