<?xml version="1.0" encoding="UTF-8"?>
<!DOCTYPE svg PUBLIC "-//W3C//DTD SVG 1.1//EN" "http://www.w3.org/Graphics/SVG/1.1/DTD/svg11.dtd">
<svg xmlns="http://www.w3.org/2000/svg" xmlns:xlink="http://www.w3.org/1999/xlink" version="1.1" width="366px" height="264px" viewBox="-0.5 -0.5 366 264"><defs><clipPath id="mx-clip-4-31-152-24-0"><rect x="4" y="31" width="152" height="24"/></clipPath><clipPath id="mx-clip-199-31-162-44-0"><rect x="199" y="31" width="162" height="44"/></clipPath><clipPath id="mx-clip-58-121-302-144-0"><rect x="58" y="121" width="302" height="144"/></clipPath></defs><g><g><path d="M 0 26 L 0 0 L 160 0 L 160 26" fill="rgb(255, 255, 255)" stroke="rgb(0, 0, 0)" stroke-miterlimit="10" pointer-events="all"/><path d="M 0 26 L 0 50 L 160 50 L 160 26" fill="none" stroke="rgb(0, 0, 0)" stroke-miterlimit="10" pointer-events="none"/><path d="M 0 26 L 160 26" fill="none" stroke="rgb(0, 0, 0)" stroke-miterlimit="10" pointer-events="none"/></g><g><g fill="rgb(0, 0, 0)" font-family="Helvetica" font-weight="bold" text-anchor="middle" font-size="14px"><text x="79.5" y="19.5">UpdateUserRequest</text></g></g><g><rect x="0" y="26" width="160" height="24" fill="#ffffff" stroke="none" pointer-events="all"/></g><g><g fill="rgb(0, 0, 0)" font-family="Helvetica" clip-path="url(#mx-clip-4-31-152-24-0)" font-size="12px"><text x="5.5" y="43.5">UpdateUserMsg msg = 1;</text></g></g><g><path d="M 195 26 L 195 0 L 365 0 L 365 26" fill="rgb(255, 255, 255)" stroke="rgb(0, 0, 0)" stroke-miterlimit="10" pointer-events="all"/><path d="M 195 26 L 195 70 L 365 70 L 365 26" fill="none" stroke="rgb(0, 0, 0)" stroke-miterlimit="10" pointer-events="none"/><path d="M 195 26 L 365 26" fill="none" stroke="rgb(0, 0, 0)" stroke-miterlimit="10" pointer-events="none"/></g><g><g fill="rgb(0, 0, 0)" font-family="Helvetica" font-weight="bold" text-anchor="middle" font-size="14px"><text x="279.5" y="19.5">UpdateUserResponse</text></g></g><g><rect x="195" y="26" width="170" height="44" fill="#ffffff" stroke="none" pointer-events="all"/></g><g><g fill="rgb(0, 0, 0)" font-family="Helvetica" clip-path="url(#mx-clip-199-31-162-44-0)" font-size="12px"><text x="200.5" y="43.5">ResponseCode code = 1;</text><text x="200.5" y="57.5">string msg = 2;</text></g></g><g><path d="M 54 116 L 54 90 L 364 90 L 364 116" fill="rgb(255, 255, 255)" stroke="rgb(0, 0, 0)" stroke-miterlimit="10" pointer-events="all"/><path d="M 54 116 L 54 260 L 364 260 L 364 116" fill="none" stroke="rgb(0, 0, 0)" stroke-miterlimit="10" pointer-events="none"/><path d="M 54 116 L 364 116" fill="none" stroke="rgb(0, 0, 0)" stroke-miterlimit="10" pointer-events="none"/></g><g><g fill="rgb(0, 0, 0)" font-family="Helvetica" font-weight="bold" text-anchor="middle" font-size="14px"><text x="208.5" y="109.5">UpdateUserMsg</text></g></g><g><rect x="54" y="116" width="310" height="144" fill="#ffffff" stroke="none" pointer-events="all"/></g><g><g fill="rgb(0, 0, 0)" font-family="Helvetica" clip-path="url(#mx-clip-58-121-302-144-0)" font-size="12px"><text x="59.5" y="133.5">int64 modifiedDate = 1;</text><text x="59.5" y="147.5">E2eeAddress user_address = 2;</text><text x="59.5" y="161.5">UpdateUserOp op = 3;</text><text x="59.5" y="175.5">oneof arg {</text><text x="59.5" y="189.5">  UpdateUserNameArg update_user_name_arg = 4;</text><text x="59.5" y="203.5">  UpdateUserAvatarArg update_user_avatar_arg = 5;</text><text x="59.5" y="217.5">  UpdateUserStateArg update_user_state_arg = 6;</text><text x="59.5" y="231.5">  UpdateUserPrivacyArg update_user_privacy_arg = 7;</text><text x="59.5" y="245.5">}</text></g></g><g><path d="M 16.96 53 L 17 103 L 46.7 102.93" fill="none" stroke="rgb(0, 0, 0)" stroke-miterlimit="10" pointer-events="stroke"/><path d="M 51.95 102.92 L 44.96 106.44 L 46.7 102.93 L 44.94 99.44 Z" fill="rgb(0, 0, 0)" stroke="rgb(0, 0, 0)" stroke-miterlimit="10" pointer-events="all"/></g></g></svg>