<?xml version="1.0" encoding="UTF-8"?>
<!DOCTYPE svg PUBLIC "-//W3C//DTD SVG 1.1//EN" "http://www.w3.org/Graphics/SVG/1.1/DTD/svg11.dtd">
<svg xmlns="http://www.w3.org/2000/svg" xmlns:xlink="http://www.w3.org/1999/xlink" version="1.1" width="570px" height="294px" viewBox="-0.5 -0.5 570 294"><defs><clipPath id="mx-clip-4-31-292-204-0"><rect x="4" y="31" width="292" height="204"/></clipPath><clipPath id="mx-clip-385-61-172-44-0"><rect x="385" y="61" width="172" height="44"/></clipPath><clipPath id="mx-clip-385-141-172-64-0"><rect x="385" y="141" width="172" height="64"/></clipPath><clipPath id="mx-clip-385-241-172-54-0"><rect x="385" y="241" width="172" height="54"/></clipPath></defs><g><g><path d="M 0 26 L 0 0 L 300 0 L 300 26" fill="rgb(255, 255, 255)" stroke="rgb(0, 0, 0)" stroke-miterlimit="10" pointer-events="all"/><path d="M 0 26 L 0 230 L 300 230 L 300 26" fill="none" stroke="rgb(0, 0, 0)" stroke-miterlimit="10" pointer-events="none"/><path d="M 0 26 L 300 26" fill="none" stroke="rgb(0, 0, 0)" stroke-miterlimit="10" pointer-events="none"/></g><g><g fill="rgb(0, 0, 0)" font-family="Helvetica" font-weight="bold" text-anchor="middle" font-size="14px"><text x="149.5" y="19.5">Account</text></g></g><g><rect x="0" y="26" width="300" height="204" fill="#ffffff" stroke="none" pointer-events="all"/></g><g><g fill="rgb(0, 0, 0)" font-family="Helvetica" clip-path="url(#mx-clip-4-31-292-204-0)" font-size="12px"><text x="5.5" y="43.5">  string version = 1;</text><text x="5.5" y="57.5">  uint32 e2ee_pack_id = 2;</text><text x="5.5" y="71.5">  E2eeAddress address = 3;</text><text x="5.5" y="99.5">  IdentityKey identity_key = 11;</text><text x="5.5" y="113.5">  SignedPreKey signed_pre_key = 12;</text><text x="5.5" y="127.5">  repeated OneTimePreKey one_time_pre_keys = 13;</text><text x="5.5" y="141.5">  uint32 next_one_time_pre_key_id = 14;</text><text x="5.5" y="169.5">  bool saved = 21;</text><text x="5.5" y="183.5">  string password = 22;</text><text x="5.5" y="197.5">  string auth = 23;</text><text x="5.5" y="211.5">  int64 expires_in = 24;</text></g></g><g/><g><path d="M 381 56 L 381 30 L 561 30 L 561 56" fill="rgb(255, 255, 255)" stroke="rgb(0, 0, 0)" stroke-miterlimit="10" pointer-events="all"/><path d="M 381 56 L 381 100 L 561 100 L 561 56" fill="none" stroke="rgb(0, 0, 0)" stroke-miterlimit="10" pointer-events="none"/><path d="M 381 56 L 561 56" fill="none" stroke="rgb(0, 0, 0)" stroke-miterlimit="10" pointer-events="none"/></g><g><g fill="rgb(0, 0, 0)" font-family="Helvetica" font-weight="bold" text-anchor="middle" font-size="14px"><text x="470.5" y="49.5">IdentityKey</text></g></g><g><rect x="381" y="56" width="180" height="44" fill="#ffffff" stroke="none" pointer-events="all"/></g><g><g fill="rgb(0, 0, 0)" font-family="Helvetica" clip-path="url(#mx-clip-385-61-172-44-0)" font-size="12px"><text x="386.5" y="73.5">  KeyPair asym_key_pair = 1;</text><text x="386.5" y="87.5">  KeyPair sign_key_pair = 2;</text></g></g><g/><g><path d="M 381 136 L 381 110 L 561 110 L 561 136" fill="rgb(255, 255, 255)" stroke="rgb(0, 0, 0)" stroke-miterlimit="10" pointer-events="all"/><path d="M 381 136 L 381 200 L 561 200 L 561 136" fill="none" stroke="rgb(0, 0, 0)" stroke-miterlimit="10" pointer-events="none"/><path d="M 381 136 L 561 136" fill="none" stroke="rgb(0, 0, 0)" stroke-miterlimit="10" pointer-events="none"/></g><g><g fill="rgb(0, 0, 0)" font-family="Helvetica" font-weight="bold" text-anchor="middle" font-size="14px"><text x="470.5" y="129.5">SignedPreKey</text></g></g><g><rect x="381" y="136" width="180" height="64" fill="#ffffff" stroke="none" pointer-events="all"/></g><g><g fill="rgb(0, 0, 0)" font-family="Helvetica" clip-path="url(#mx-clip-385-141-172-64-0)" font-size="12px"><text x="386.5" y="153.5">  uint32 spk_id = 1;</text><text x="386.5" y="167.5">  KeyPair key_pair = 2;</text><text x="386.5" y="181.5">  bytes signature = 3;</text><text x="386.5" y="195.5">  int64 ttl = 4;</text></g></g><g/><g><path d="M 381 236 L 381 210 L 561 210 L 561 236" fill="rgb(255, 255, 255)" stroke="rgb(0, 0, 0)" stroke-miterlimit="10" pointer-events="all"/><path d="M 381 236 L 381 290 L 561 290 L 561 236" fill="none" stroke="rgb(0, 0, 0)" stroke-miterlimit="10" pointer-events="none"/><path d="M 381 236 L 561 236" fill="none" stroke="rgb(0, 0, 0)" stroke-miterlimit="10" pointer-events="none"/></g><g><g fill="rgb(0, 0, 0)" font-family="Helvetica" font-weight="bold" text-anchor="middle" font-size="14px"><text x="470.5" y="229.5">OneTimePreKey</text></g></g><g><rect x="381" y="236" width="180" height="54" fill="#ffffff" stroke="none" pointer-events="all"/></g><g><g fill="rgb(0, 0, 0)" font-family="Helvetica" clip-path="url(#mx-clip-385-241-172-54-0)" font-size="12px"><text x="386.5" y="253.5">  uint32 opk_id = 1;</text><text x="386.5" y="267.5">  bool used = 2;</text><text x="386.5" y="281.5">  KeyPair key_pair = 3;</text></g></g><g/><g><path d="M 279.9 110.05 L 330 110 L 330 120 L 374.63 119.99" fill="none" stroke="rgb(0, 0, 0)" stroke-miterlimit="10" pointer-events="stroke"/><path d="M 379.88 119.99 L 372.88 123.49 L 374.63 119.99 L 372.88 116.49 Z" fill="rgb(0, 0, 0)" stroke="rgb(0, 0, 0)" stroke-miterlimit="10" pointer-events="all"/></g><g><path d="M 279.9 100.05 L 340 100.1 L 340 42 L 371.39 41.98" fill="none" stroke="rgb(0, 0, 0)" stroke-miterlimit="10" pointer-events="stroke"/><path d="M 376.64 41.97 L 369.64 45.48 L 371.39 41.98 L 369.64 38.48 Z" fill="rgb(0, 0, 0)" stroke="rgb(0, 0, 0)" stroke-miterlimit="10" pointer-events="all"/></g><g><path d="M 279.9 130.04 L 279.9 153 L 340 153 L 340 220.8 L 374.45 220.8" fill="none" stroke="rgb(0, 0, 0)" stroke-miterlimit="10" pointer-events="stroke"/><path d="M 379.7 220.8 L 372.7 224.3 L 374.45 220.8 L 372.7 217.3 Z" fill="rgb(0, 0, 0)" stroke="rgb(0, 0, 0)" stroke-miterlimit="10" pointer-events="all"/></g></g></svg>