<?xml version="1.0" encoding="UTF-8"?>
<!DOCTYPE svg PUBLIC "-//W3C//DTD SVG 1.1//EN" "http://www.w3.org/Graphics/SVG/1.1/DTD/svg11.dtd">
<svg xmlns="http://www.w3.org/2000/svg" xmlns:xlink="http://www.w3.org/1999/xlink" version="1.1" width="351px" height="228px" viewBox="-0.5 -0.5 351 228"><defs><clipPath id="mx-clip-4-31-162-84-0"><rect x="4" y="31" width="162" height="84"/></clipPath><clipPath id="mx-clip-219-82-127-54-0"><rect x="219" y="82" width="127" height="54"/></clipPath><clipPath id="mx-clip-219-185-127-44-0"><rect x="219" y="185" width="127" height="44"/></clipPath></defs><g><g><path d="M 0 26 L 0 0 L 170 0 L 170 26" fill="rgb(255, 255, 255)" stroke="rgb(0, 0, 0)" stroke-miterlimit="10" pointer-events="all"/><path d="M 0 26 L 0 110 L 170 110 L 170 26" fill="none" stroke="rgb(0, 0, 0)" stroke-miterlimit="10" pointer-events="none"/><path d="M 0 26 L 170 26" fill="none" stroke="rgb(0, 0, 0)" stroke-miterlimit="10" pointer-events="none"/></g><g><g fill="rgb(0, 0, 0)" font-family="Helvetica" font-weight="bold" text-anchor="middle" font-size="14px"><text x="84.5" y="19.5">E2eeAddress</text></g></g><g><rect x="0" y="26" width="170" height="84" fill="rgb(255, 255, 255)" stroke="none" pointer-events="all"/></g><g><g fill="rgb(0, 0, 0)" font-family="Helvetica" clip-path="url(#mx-clip-4-31-162-84-0)" font-size="12px"><text x="5.5" y="43.5">string domain = 1;</text><text x="5.5" y="57.5">oneof peer {</text><text x="5.5" y="71.5">    PeerUser user = 2;</text><text x="5.5" y="85.5">    PeerGroup group = 3;</text><text x="5.5" y="99.5">}</text></g></g><g><path d="M 215 77 L 215 51 L 350 51 L 350 77" fill="rgb(255, 255, 255)" stroke="rgb(0, 0, 0)" stroke-miterlimit="10" pointer-events="all"/><path d="M 215 77 L 215 131 L 350 131 L 350 77" fill="none" stroke="rgb(0, 0, 0)" stroke-miterlimit="10" pointer-events="none"/><path d="M 215 77 L 350 77" fill="none" stroke="rgb(0, 0, 0)" stroke-miterlimit="10" pointer-events="none"/></g><g><g fill="rgb(0, 0, 0)" font-family="Helvetica" font-weight="bold" text-anchor="middle" font-size="14px"><text x="282" y="70.5">PeerUser</text></g></g><g><rect x="215" y="77" width="135" height="54" fill="rgb(255, 255, 255)" stroke="none" pointer-events="all"/></g><g><g fill="rgb(0, 0, 0)" font-family="Helvetica" clip-path="url(#mx-clip-219-82-127-54-0)" font-size="12px"><text x="220.5" y="94.5">string user_name = 1;</text><text x="220.5" y="108.5">string user_id = 2;</text><text x="220.5" y="122.5">string device_id = 3;</text></g></g><g><path d="M 215 180 L 215 154 L 350 154 L 350 180" fill="rgb(255, 255, 255)" stroke="rgb(0, 0, 0)" stroke-miterlimit="10" pointer-events="all"/><path d="M 215 180 L 215 224 L 350 224 L 350 180" fill="none" stroke="rgb(0, 0, 0)" stroke-miterlimit="10" pointer-events="none"/><path d="M 215 180 L 350 180" fill="none" stroke="rgb(0, 0, 0)" stroke-miterlimit="10" pointer-events="none"/></g><g><g fill="rgb(0, 0, 0)" font-family="Helvetica" font-weight="bold" text-anchor="middle" font-size="14px"><text x="282" y="173.5">PeerGroup</text></g></g><g><rect x="215" y="180" width="135" height="44" fill="rgb(255, 255, 255)" stroke="none" pointer-events="all"/></g><g><g fill="rgb(0, 0, 0)" font-family="Helvetica" clip-path="url(#mx-clip-219-185-127-44-0)" font-size="12px"><text x="220.5" y="197.5">string group_name = 1;</text><text x="220.5" y="211.5">string group_id = 2;</text></g></g><g><path d="M 149.94 85.98 L 180 86 L 180 172 L 208.63 171.59" fill="none" stroke="rgb(0, 0, 0)" stroke-miterlimit="10" pointer-events="stroke"/><path d="M 213.88 171.52 L 206.93 175.12 L 208.63 171.59 L 206.83 168.12 Z" fill="rgb(0, 0, 0)" stroke="rgb(0, 0, 0)" stroke-miterlimit="10" pointer-events="all"/></g><g><path d="M 149.94 65.98 L 210.66 65.09" fill="none" stroke="rgb(0, 0, 0)" stroke-miterlimit="10" pointer-events="stroke"/><path d="M 215.91 65.02 L 208.96 68.62 L 210.66 65.09 L 208.86 61.62 Z" fill="rgb(0, 0, 0)" stroke="rgb(0, 0, 0)" stroke-miterlimit="10" pointer-events="all"/></g></g></svg>