<?xml version="1.0" encoding="UTF-8"?>
<!DOCTYPE svg PUBLIC "-//W3C//DTD SVG 1.1//EN" "http://www.w3.org/Graphics/SVG/1.1/DTD/svg11.dtd">
<svg xmlns="http://www.w3.org/2000/svg" xmlns:xlink="http://www.w3.org/1999/xlink" version="1.1" width="541px" height="364px" viewBox="-0.5 -0.5 541 364"><defs><clipPath id="mx-clip-4-31-182-154-0"><rect x="4" y="31" width="182" height="154"/></clipPath><clipPath id="mx-clip-284-230-127-54-0"><rect x="284" y="230" width="127" height="54"/></clipPath><clipPath id="mx-clip-284-131-252-54-0"><rect x="284" y="131" width="252" height="54"/></clipPath><clipPath id="mx-clip-4-281-246-84-0"><rect x="4" y="281" width="246" height="84"/></clipPath></defs><g><g><path d="M 0 26 L 0 0 L 190 0 L 190 26" fill="rgb(255, 255, 255)" stroke="rgb(0, 0, 0)" stroke-miterlimit="10" pointer-events="all"/><path d="M 0 26 L 0 180 L 190 180 L 190 26" fill="none" stroke="rgb(0, 0, 0)" stroke-miterlimit="10" pointer-events="none"/><path d="M 0 26 L 190 26" fill="none" stroke="rgb(0, 0, 0)" stroke-miterlimit="10" pointer-events="none"/></g><g><g fill="rgb(0, 0, 0)" font-family="Helvetica" font-weight="bold" text-anchor="middle" font-size="14px"><text x="94.5" y="19.5">GroupSession</text></g></g><g><rect x="0" y="26" width="190" height="154" fill="#ffffff" stroke="none" pointer-events="all"/></g><g><g fill="rgb(0, 0, 0)" font-family="Helvetica" clip-path="url(#mx-clip-4-31-182-154-0)" font-size="12px"><text x="5.5" y="43.5">string version = 1;</text><text x="5.5" y="57.5">string e2ee_pack_id = 2;</text><text x="5.5" y="71.5">string session_id = 3;</text><text x="5.5" y="85.5">E2eeAddress sender = 4;</text><text x="5.5" y="99.5">E2eeAddress session_owner = 5;</text><text x="5.5" y="113.5">GroupInfo group_info = 6;</text><text x="5.5" y="127.5">uint32 sequence = 7;</text><text x="5.5" y="141.5">bytes chain_key = 8;</text><text x="5.5" y="155.5">bytes group_seed = 9;</text><text x="5.5" y="169.5">bytes associated_data = 10;</text></g></g><g><path d="M 280 225 L 280 199 L 415 199 L 415 225" fill="rgb(255, 255, 255)" stroke="rgb(0, 0, 0)" stroke-miterlimit="10" pointer-events="all"/><path d="M 280 225 L 280 279 L 415 279 L 415 225" fill="none" stroke="rgb(0, 0, 0)" stroke-miterlimit="10" pointer-events="none"/><path d="M 280 225 L 415 225" fill="none" stroke="rgb(0, 0, 0)" stroke-miterlimit="10" pointer-events="none"/></g><g><g fill="rgb(0, 0, 0)" font-family="Helvetica" font-weight="bold" text-anchor="middle" font-size="14px"><text x="347" y="218.5">GroupMember</text></g></g><g><rect x="280" y="225" width="135" height="54" fill="#ffffff" stroke="none" pointer-events="all"/></g><g><g fill="rgb(0, 0, 0)" font-family="Helvetica" clip-path="url(#mx-clip-284-230-127-54-0)" font-size="12px"><text x="285.5" y="242.5">string user_id = 1;</text><text x="285.5" y="256.5">string domain = 2;</text><text x="285.5" y="270.5">GroupRole role = 3;</text></g></g><g><path d="M 280 126 L 280 100 L 540 100 L 540 126" fill="rgb(255, 255, 255)" stroke="rgb(0, 0, 0)" stroke-miterlimit="10" pointer-events="all"/><path d="M 280 126 L 280 180 L 540 180 L 540 126" fill="none" stroke="rgb(0, 0, 0)" stroke-miterlimit="10" pointer-events="none"/><path d="M 280 126 L 540 126" fill="none" stroke="rgb(0, 0, 0)" stroke-miterlimit="10" pointer-events="none"/></g><g><g fill="rgb(0, 0, 0)" font-family="Helvetica" font-weight="bold" text-anchor="middle" font-size="14px"><text x="409.5" y="119.5">GroupInfo</text></g></g><g><rect x="280" y="126" width="260" height="54" fill="#ffffff" stroke="none" pointer-events="all"/></g><g><g fill="rgb(0, 0, 0)" font-family="Helvetica" clip-path="url(#mx-clip-284-131-252-54-0)" font-size="12px"><text x="285.5" y="143.5">string group_name = 1;</text><text x="285.5" y="157.5">E2eeAddress group_address = 2;</text><text x="285.5" y="171.5">repeated GroupMember group_members = 3;</text></g></g><g><path d="M 159.98 109.93 L 240 110 L 271.55 109.8" fill="none" stroke="rgb(0, 0, 0)" stroke-miterlimit="10" pointer-events="stroke"/><path d="M 276.8 109.77 L 269.82 113.31 L 271.55 109.8 L 269.78 106.31 Z" fill="rgb(0, 0, 0)" stroke="rgb(0, 0, 0)" stroke-miterlimit="10" pointer-events="all"/></g><g><path d="M 0 276 L 0 250 L 254 250 L 254 276" fill="rgb(255, 255, 255)" stroke="rgb(0, 0, 0)" stroke-miterlimit="10" pointer-events="all"/><path d="M 0 276 L 0 360 L 254 360 L 254 276" fill="none" stroke="rgb(0, 0, 0)" stroke-miterlimit="10" pointer-events="none"/><path d="M 0 276 L 254 276" fill="none" stroke="rgb(0, 0, 0)" stroke-miterlimit="10" pointer-events="none"/></g><g><g fill="rgb(0, 0, 0)" font-family="Helvetica" font-weight="bold" text-anchor="middle" font-size="14px"><text x="126.5" y="269.5">GroupRole</text></g></g><g><rect x="0" y="276" width="254" height="84" fill="#ffffff" stroke="none" pointer-events="all"/></g><g><g fill="rgb(0, 0, 0)" font-family="Helvetica" clip-path="url(#mx-clip-4-281-246-84-0)" font-size="12px"><text x="5.5" y="293.5">GROUP_ROLE_MEMBER = 0;</text><text x="5.5" y="307.5">GROUP_ROLE_MANAGER = 1;</text><text x="5.5" y="335.5">GROUP_ROLE_PENDING_MEMBER = 10;</text><text x="5.5" y="349.5">GROUP_ROLE_PENDING_MANAGER = 11;</text></g></g><g><path d="M 279.06 267.98 L 258.34 268.03" fill="none" stroke="rgb(0, 0, 0)" stroke-miterlimit="10" pointer-events="stroke"/><path d="M 253.09 268.04 L 260.08 264.52 L 258.34 268.03 L 260.09 271.52 Z" fill="rgb(0, 0, 0)" stroke="rgb(0, 0, 0)" stroke-miterlimit="10" pointer-events="all"/></g><g><path d="M 283.99 169 L 265 168.96 L 265 210 L 273.24 210" fill="none" stroke="rgb(0, 0, 0)" stroke-miterlimit="10" pointer-events="stroke"/><path d="M 278.49 210 L 271.49 213.5 L 273.24 210 L 271.49 206.5 Z" fill="rgb(0, 0, 0)" stroke="rgb(0, 0, 0)" stroke-miterlimit="10" pointer-events="all"/></g></g></svg>