<?xml version="1.0" encoding="UTF-8"?>
<!DOCTYPE svg PUBLIC "-//W3C//DTD SVG 1.1//EN" "http://www.w3.org/Graphics/SVG/1.1/DTD/svg11.dtd">
<svg xmlns="http://www.w3.org/2000/svg" xmlns:xlink="http://www.w3.org/1999/xlink" version="1.1" width="582px" height="274px" viewBox="-0.5 -0.5 582 274"><defs><clipPath id="mx-clip-4-57-322-84-0"><rect x="4" y="57" width="322" height="84"/></clipPath><clipPath id="mx-clip-405-31-172-44-0"><rect x="405" y="31" width="172" height="44"/></clipPath><clipPath id="mx-clip-405-126-172-54-0"><rect x="405" y="126" width="172" height="54"/></clipPath><clipPath id="mx-clip-405-231-172-44-0"><rect x="405" y="231" width="172" height="44"/></clipPath></defs><g><g><path d="M 0 52 L 0 26 L 330 26 L 330 52" fill="rgb(255, 255, 255)" stroke="rgb(0, 0, 0)" stroke-miterlimit="10" pointer-events="all"/><path d="M 0 52 L 0 136 L 330 136 L 330 52" fill="none" stroke="rgb(0, 0, 0)" stroke-miterlimit="10" pointer-events="none"/><path d="M 0 52 L 330 52" fill="none" stroke="rgb(0, 0, 0)" stroke-miterlimit="10" pointer-events="none"/></g><g><g fill="rgb(0, 0, 0)" font-family="Helvetica" font-weight="bold" text-anchor="middle" font-size="14px"><text x="164.5" y="45.5">PreKeyBundle</text></g></g><g><rect x="0" y="52" width="330" height="84" fill="#ffffff" stroke="none" pointer-events="all"/></g><g><g fill="rgb(0, 0, 0)" font-family="Helvetica" clip-path="url(#mx-clip-4-57-322-84-0)" font-size="12px"><text x="5.5" y="69.5">  E2eeAddress user_address = 1;</text><text x="5.5" y="83.5">  string e2ee_pack_id = 2;</text><text x="5.5" y="97.5">  IdentityKeyPublic identity_key_public = 3;</text><text x="5.5" y="111.5">  SignedPreKeyPublic signed_pre_key_public = 4;</text><text x="5.5" y="125.5">  OneTimePreKeyPublic one_time_pre_key_public = 5;</text></g></g><g/><g><path d="M 401 26 L 401 0 L 581 0 L 581 26" fill="rgb(255, 255, 255)" stroke="rgb(0, 0, 0)" stroke-miterlimit="10" pointer-events="all"/><path d="M 401 26 L 401 70 L 581 70 L 581 26" fill="none" stroke="rgb(0, 0, 0)" stroke-miterlimit="10" pointer-events="none"/><path d="M 401 26 L 581 26" fill="none" stroke="rgb(0, 0, 0)" stroke-miterlimit="10" pointer-events="none"/></g><g><g fill="rgb(0, 0, 0)" font-family="Helvetica" font-weight="bold" text-anchor="middle" font-size="14px"><text x="490.5" y="19.5">IdentityKeyPublic</text></g></g><g><rect x="401" y="26" width="180" height="44" fill="#ffffff" stroke="none" pointer-events="all"/></g><g><g fill="rgb(0, 0, 0)" font-family="Helvetica" clip-path="url(#mx-clip-405-31-172-44-0)" font-size="12px"><text x="406.5" y="43.5">  bytes asym_public_key = 1;</text><text x="406.5" y="57.5">  bytes sign_public_key = 2;</text></g></g><g><path d="M 401 121 L 401 95 L 581 95 L 581 121" fill="rgb(255, 255, 255)" stroke="rgb(0, 0, 0)" stroke-miterlimit="10" pointer-events="all"/><path d="M 401 121 L 401 175 L 581 175 L 581 121" fill="none" stroke="rgb(0, 0, 0)" stroke-miterlimit="10" pointer-events="none"/><path d="M 401 121 L 581 121" fill="none" stroke="rgb(0, 0, 0)" stroke-miterlimit="10" pointer-events="none"/></g><g><g fill="rgb(0, 0, 0)" font-family="Helvetica" font-weight="bold" text-anchor="middle" font-size="14px"><text x="490.5" y="114.5">SignedPreKeyPublic</text></g></g><g><rect x="401" y="121" width="180" height="54" fill="#ffffff" stroke="none" pointer-events="all"/></g><g><g fill="rgb(0, 0, 0)" font-family="Helvetica" clip-path="url(#mx-clip-405-126-172-54-0)" font-size="12px"><text x="406.5" y="138.5">  uint32 spk_id = 1;</text><text x="406.5" y="152.5">  bytes public_key = 2;</text><text x="406.5" y="166.5">  bytes signature = 3;</text></g></g><g><path d="M 401 226 L 401 200 L 581 200 L 581 226" fill="rgb(255, 255, 255)" stroke="rgb(0, 0, 0)" stroke-miterlimit="10" pointer-events="all"/><path d="M 401 226 L 401 270 L 581 270 L 581 226" fill="none" stroke="rgb(0, 0, 0)" stroke-miterlimit="10" pointer-events="none"/><path d="M 401 226 L 581 226" fill="none" stroke="rgb(0, 0, 0)" stroke-miterlimit="10" pointer-events="none"/></g><g><g fill="rgb(0, 0, 0)" font-family="Helvetica" font-weight="bold" text-anchor="middle" font-size="14px"><text x="490.5" y="219.5">OneTimePreKeyPublic</text></g></g><g><rect x="401" y="226" width="180" height="44" fill="#ffffff" stroke="none" pointer-events="all"/></g><g><g fill="rgb(0, 0, 0)" font-family="Helvetica" clip-path="url(#mx-clip-405-231-172-44-0)" font-size="12px"><text x="406.5" y="243.5">  uint32 opk_id = 1;</text><text x="406.5" y="257.5">  bytes public_key = 2;</text></g></g><g><path d="M 310 105 L 356 105.5 L 394.63 105.07" fill="none" stroke="rgb(0, 0, 0)" stroke-miterlimit="10" pointer-events="stroke"/><path d="M 399.88 105.01 L 392.92 108.59 L 394.63 105.07 L 392.84 101.59 Z" fill="rgb(0, 0, 0)" stroke="rgb(0, 0, 0)" stroke-miterlimit="10" pointer-events="all"/></g><g><path d="M 310 93.01 L 360 93 L 360 10 L 394.63 10" fill="none" stroke="rgb(0, 0, 0)" stroke-miterlimit="10" pointer-events="stroke"/><path d="M 399.88 10 L 392.88 13.5 L 394.63 10 L 392.88 6.5 Z" fill="rgb(0, 0, 0)" stroke="rgb(0, 0, 0)" stroke-miterlimit="10" pointer-events="all"/></g><g><path d="M 310 121.01 L 360 121 L 360 209 L 380 209 L 394.45 208.83" fill="none" stroke="rgb(0, 0, 0)" stroke-miterlimit="10" pointer-events="stroke"/><path d="M 399.7 208.76 L 392.74 212.35 L 394.45 208.83 L 392.66 205.35 Z" fill="rgb(0, 0, 0)" stroke="rgb(0, 0, 0)" stroke-miterlimit="10" pointer-events="all"/></g></g></svg>